<svg width="21" height="21" viewBox="0 0 21 21" fill="none" xmlns="http://www.w3.org/2000/svg">
<path d="M19.4143 10.4931C19.4177 11.8129 19.1094 13.115 18.5143 14.2931C17.8087 15.7048 16.7241 16.8922 15.3818 17.7224C14.0395 18.5525 12.4925 18.9925 10.9143 18.9931C9.59444 18.9965 8.29242 18.6881 7.11431 18.0931L1.41431 19.9931L3.31431 14.2931C2.71924 13.115 2.41087 11.8129 2.41431 10.4931C2.41492 8.91483 2.85492 7.36792 3.68503 6.02562C4.51513 4.68332 5.70256 3.59864 7.11431 2.89307C8.29242 2.298 9.59444 1.98963 10.9143 1.99307H11.4143C13.4987 2.10806 15.4673 2.98783 16.9434 4.46393C18.4195 5.94003 19.2993 7.90872 19.4143 9.99307V10.4931Z" stroke="black" stroke-width="2" stroke-linecap="round" stroke-linejoin="round"/>
</svg>
