<svg width="141" height="36" viewBox="0 0 141 36" fill="none" xmlns="http://www.w3.org/2000/svg">
<path d="M3.9745 31.2531C3.62783 31.2531 3.36783 31.1577 3.1945 30.9671C3.02116 30.7937 2.9345 30.5337 2.9345 30.1871V14.6391C2.9345 14.2924 3.02116 14.0324 3.1945 13.8591C3.36783 13.6684 3.61916 13.5731 3.9485 13.5731C4.29516 13.5731 4.55516 13.6684 4.7285 13.8591C4.91916 14.0324 5.0145 14.2924 5.0145 14.6391V17.1091L4.7285 16.7451C5.00583 15.7571 5.55183 14.9771 6.3665 14.4051C7.1985 13.8157 8.1865 13.5211 9.3305 13.5211C10.4572 13.5211 11.4365 13.7897 12.2685 14.3271C13.1178 14.8471 13.7678 15.6011 14.2185 16.5891C14.6865 17.5597 14.9205 18.7211 14.9205 20.0731C14.9205 21.4077 14.6865 22.5691 14.2185 23.5571C13.7678 24.5277 13.1265 25.2817 12.2945 25.8191C11.4625 26.3564 10.4745 26.6251 9.3305 26.6251C8.1865 26.6251 7.20716 26.3391 6.3925 25.7671C5.57783 25.1777 5.02316 24.3977 4.7285 23.4271H5.0405V30.1871C5.0405 30.5337 4.94516 30.7937 4.7545 30.9671C4.56383 31.1577 4.30383 31.2531 3.9745 31.2531ZM8.8885 24.9351C9.68583 24.9351 10.3705 24.7444 10.9425 24.3631C11.5318 23.9817 11.9825 23.4271 12.2945 22.6991C12.6238 21.9711 12.7885 21.0957 12.7885 20.0731C12.7885 18.4957 12.4332 17.2911 11.7225 16.4591C11.0292 15.6271 10.0845 15.2111 8.8885 15.2111C8.1085 15.2111 7.42383 15.4017 6.8345 15.7831C6.24516 16.1471 5.78583 16.6931 5.4565 17.4211C5.1445 18.1317 4.9885 19.0157 4.9885 20.0731C4.9885 21.6331 5.34383 22.8377 6.0545 23.6871C6.76516 24.5191 7.70983 24.9351 8.8885 24.9351ZM22.5647 26.6251C21.542 26.6251 20.6927 26.4431 20.0167 26.0791C19.358 25.6977 18.8554 25.1344 18.5087 24.3891C18.1794 23.6437 18.0147 22.7164 18.0147 21.6071V14.6391C18.0147 14.2751 18.1014 14.0064 18.2747 13.8331C18.4654 13.6597 18.7254 13.5731 19.0547 13.5731C19.4014 13.5731 19.6614 13.6597 19.8347 13.8331C20.0254 14.0064 20.1207 14.2751 20.1207 14.6391V21.5811C20.1207 22.6904 20.346 23.5224 20.7967 24.0771C21.2647 24.6144 21.9927 24.8831 22.9807 24.8831C24.0554 24.8831 24.9307 24.5191 25.6067 23.7911C26.2827 23.0631 26.6207 22.1097 26.6207 20.9311V14.6391C26.6207 14.2751 26.7074 14.0064 26.8807 13.8331C27.0714 13.6597 27.34 13.5731 27.6867 13.5731C28.016 13.5731 28.2674 13.6597 28.4407 13.8331C28.6314 14.0064 28.7267 14.2751 28.7267 14.6391V25.4811C28.7267 26.2091 28.3887 26.5731 27.7127 26.5731C27.3834 26.5731 27.1234 26.4777 26.9327 26.2871C26.7594 26.0964 26.6727 25.8277 26.6727 25.4811V23.1151L27.0107 23.4791C26.664 24.5017 26.092 25.2817 25.2947 25.8191C24.5147 26.3564 23.6047 26.6251 22.5647 26.6251ZM33.7329 26.5731C33.3863 26.5731 33.1176 26.4777 32.9269 26.2871C32.7536 26.0964 32.6669 25.8277 32.6669 25.4811V14.6391C32.6669 14.2924 32.7536 14.0324 32.9269 13.8591C33.1003 13.6684 33.3516 13.5731 33.6809 13.5731C34.0103 13.5731 34.2616 13.6684 34.4349 13.8591C34.6256 14.0324 34.7209 14.2924 34.7209 14.6391V16.7451H34.4609C34.7383 15.7224 35.2669 14.9337 36.0469 14.3791C36.8269 13.8244 37.7889 13.5297 38.9329 13.4951C39.1929 13.4777 39.4009 13.5384 39.5569 13.6771C39.7129 13.7984 39.7996 14.0151 39.8169 14.3271C39.8343 14.6217 39.7649 14.8557 39.6089 15.0291C39.4529 15.2024 39.2103 15.3064 38.8809 15.3411L38.4649 15.3931C37.2863 15.4971 36.3763 15.8784 35.7349 16.5371C35.1109 17.1784 34.7989 18.0624 34.7989 19.1891V25.4811C34.7989 25.8277 34.7036 26.0964 34.5129 26.2871C34.3396 26.4777 34.0796 26.5731 33.7329 26.5731ZM46.1223 26.6251C45.3423 26.6251 44.5537 26.5297 43.7563 26.3391C42.9763 26.1484 42.2483 25.8191 41.5723 25.3511C41.399 25.2297 41.2777 25.0911 41.2083 24.9351C41.139 24.7617 41.113 24.5971 41.1303 24.4411C41.165 24.2677 41.2343 24.1204 41.3383 23.9991C41.4597 23.8777 41.5983 23.8084 41.7543 23.7911C41.9277 23.7564 42.1183 23.7911 42.3263 23.8951C43.0023 24.3111 43.6523 24.6057 44.2763 24.7791C44.9177 24.9351 45.5503 25.0131 46.1743 25.0131C47.1623 25.0131 47.9077 24.8311 48.4103 24.4671C48.913 24.1031 49.1643 23.6091 49.1643 22.9851C49.1643 22.4997 48.9997 22.1184 48.6703 21.8411C48.341 21.5464 47.821 21.3211 47.1103 21.1651L44.7443 20.6451C43.6523 20.4197 42.8377 20.0297 42.3003 19.4751C41.7803 18.9204 41.5203 18.2011 41.5203 17.3171C41.5203 16.5371 41.7197 15.8697 42.1183 15.3151C42.5343 14.7431 43.115 14.3011 43.8603 13.9891C44.6057 13.6771 45.4723 13.5211 46.4603 13.5211C47.223 13.5211 47.9423 13.6251 48.6183 13.8331C49.3117 14.0237 49.9357 14.3357 50.4903 14.7691C50.6637 14.8904 50.7763 15.0377 50.8283 15.2111C50.8977 15.3671 50.9063 15.5317 50.8543 15.7051C50.8197 15.8611 50.7417 15.9997 50.6203 16.1211C50.499 16.2251 50.3517 16.2857 50.1783 16.3031C50.005 16.3204 49.823 16.2684 49.6323 16.1471C49.1123 15.8004 48.5837 15.5491 48.0463 15.3931C47.509 15.2197 46.9803 15.1331 46.4603 15.1331C45.4897 15.1331 44.753 15.3237 44.2503 15.7051C43.7477 16.0864 43.4963 16.5891 43.4963 17.2131C43.4963 17.6984 43.6523 18.0971 43.9643 18.4091C44.2763 18.7211 44.7617 18.9464 45.4203 19.0851L47.7863 19.5791C48.913 19.8217 49.7537 20.2117 50.3083 20.7491C50.8803 21.2691 51.1663 21.9797 51.1663 22.8811C51.1663 24.0251 50.707 24.9351 49.7883 25.6111C48.8697 26.2871 47.6477 26.6251 46.1223 26.6251ZM55.4159 31.2531C55.0692 31.2531 54.8092 31.1577 54.6359 30.9671C54.4626 30.7937 54.3759 30.5337 54.3759 30.1871V14.6391C54.3759 14.2924 54.4626 14.0324 54.6359 13.8591C54.8092 13.6684 55.0606 13.5731 55.3899 13.5731C55.7366 13.5731 55.9966 13.6684 56.1699 13.8591C56.3606 14.0324 56.4559 14.2924 56.4559 14.6391V17.1091L56.1699 16.7451C56.4472 15.7571 56.9932 14.9771 57.8079 14.4051C58.6399 13.8157 59.6279 13.5211 60.7719 13.5211C61.8986 13.5211 62.8779 13.7897 63.7099 14.3271C64.5592 14.8471 65.2092 15.6011 65.6599 16.5891C66.1279 17.5597 66.3619 18.7211 66.3619 20.0731C66.3619 21.4077 66.1279 22.5691 65.6599 23.5571C65.2092 24.5277 64.5679 25.2817 63.7359 25.8191C62.9039 26.3564 61.9159 26.6251 60.7719 26.6251C59.6279 26.6251 58.6486 26.3391 57.8339 25.7671C57.0192 25.1777 56.4646 24.3977 56.1699 23.4271H56.4819V30.1871C56.4819 30.5337 56.3866 30.7937 56.1959 30.9671C56.0052 31.1577 55.7452 31.2531 55.4159 31.2531ZM60.3299 24.9351C61.1272 24.9351 61.8119 24.7444 62.3839 24.3631C62.9732 23.9817 63.4239 23.4271 63.7359 22.6991C64.0652 21.9711 64.2299 21.0957 64.2299 20.0731C64.2299 18.4957 63.8746 17.2911 63.1639 16.4591C62.4706 15.6271 61.5259 15.2111 60.3299 15.2111C59.5499 15.2111 58.8652 15.4017 58.2759 15.7831C57.6866 16.1471 57.2272 16.6931 56.8979 17.4211C56.5859 18.1317 56.4299 19.0157 56.4299 20.0731C56.4299 21.6331 56.7852 22.8377 57.4959 23.6871C58.2066 24.5191 59.1512 24.9351 60.3299 24.9351ZM75.2281 26.6251C73.8934 26.6251 72.7408 26.3651 71.7701 25.8451C70.8168 25.3077 70.0714 24.5537 69.5341 23.5831C69.0141 22.6124 68.7541 21.4511 68.7541 20.0991C68.7541 18.7817 69.0141 17.6377 69.5341 16.6671C70.0541 15.6791 70.7648 14.9077 71.6661 14.3531C72.5848 13.7984 73.6421 13.5211 74.8381 13.5211C75.6874 13.5211 76.4501 13.6684 77.1261 13.9631C77.8021 14.2404 78.3741 14.6477 78.8421 15.1851C79.3274 15.7224 79.6914 16.3724 79.9341 17.1351C80.1941 17.8977 80.3241 18.7557 80.3241 19.7091C80.3241 19.9864 80.2461 20.1944 80.0901 20.3331C79.9341 20.4544 79.7088 20.5151 79.4141 20.5151H70.3661V19.1371H78.9201L78.5041 19.4751C78.5041 18.5391 78.3654 17.7504 78.0881 17.1091C77.8108 16.4504 77.4034 15.9477 76.8661 15.6011C76.3461 15.2544 75.6874 15.0811 74.8901 15.0811C74.0061 15.0811 73.2521 15.2891 72.6281 15.7051C72.0214 16.1037 71.5621 16.6671 71.2501 17.3951C70.9381 18.1057 70.7821 18.9377 70.7821 19.8911V20.0471C70.7821 21.6417 71.1634 22.8551 71.9261 23.6871C72.7061 24.5191 73.8068 24.9351 75.2281 24.9351C75.8174 24.9351 76.3981 24.8571 76.9701 24.7011C77.5594 24.5451 78.1314 24.2851 78.6861 23.9211C78.9288 23.7651 79.1454 23.6957 79.3361 23.7131C79.5441 23.7131 79.7088 23.7737 79.8301 23.8951C79.9514 23.9991 80.0294 24.1377 80.0641 24.3111C80.1161 24.4671 80.0988 24.6404 80.0121 24.8311C79.9428 25.0217 79.7954 25.1864 79.5701 25.3251C78.9981 25.7411 78.3221 26.0617 77.5421 26.2871C76.7621 26.5124 75.9908 26.6251 75.2281 26.6251ZM88.728 26.6251C87.4627 26.6251 86.3707 26.3477 85.452 25.7931C84.5333 25.2384 83.8227 24.4671 83.32 23.4791C82.8347 22.4737 82.592 21.3124 82.592 19.9951C82.592 18.9897 82.7307 18.0884 83.008 17.2911C83.2853 16.4937 83.6927 15.8177 84.23 15.2631C84.7673 14.6911 85.4087 14.2577 86.154 13.9631C86.9167 13.6684 87.7747 13.5211 88.728 13.5211C89.352 13.5211 90.002 13.6164 90.678 13.8071C91.354 13.9977 91.9693 14.3271 92.524 14.7951C92.6973 14.9164 92.81 15.0637 92.862 15.2371C92.914 15.4104 92.914 15.5837 92.862 15.7571C92.81 15.9131 92.7233 16.0517 92.602 16.1731C92.4807 16.2771 92.3247 16.3377 92.134 16.3551C91.9607 16.3724 91.7787 16.3117 91.588 16.1731C91.1373 15.8264 90.678 15.5837 90.21 15.4451C89.742 15.3064 89.2913 15.2371 88.858 15.2371C88.182 15.2371 87.5927 15.3497 87.09 15.5751C86.5873 15.7831 86.1627 16.0864 85.816 16.4851C85.4693 16.8837 85.2007 17.3777 85.01 17.9671C84.8367 18.5564 84.75 19.2411 84.75 20.0211C84.75 21.5291 85.1053 22.7251 85.816 23.6091C86.5267 24.4757 87.5407 24.9091 88.858 24.9091C89.2913 24.9091 89.7333 24.8397 90.184 24.7011C90.652 24.5624 91.12 24.3197 91.588 23.9731C91.7787 23.8344 91.9607 23.7737 92.134 23.7911C92.3073 23.8084 92.4547 23.8777 92.576 23.9991C92.6973 24.1031 92.7753 24.2417 92.81 24.4151C92.862 24.5884 92.862 24.7617 92.81 24.9351C92.758 25.0911 92.6453 25.2297 92.472 25.3511C91.9173 25.8017 91.3107 26.1311 90.652 26.3391C89.9933 26.5297 89.352 26.6251 88.728 26.6251ZM100.477 26.6251C99.4892 26.6251 98.6572 26.4517 97.9812 26.1051C97.3225 25.7411 96.8285 25.2211 96.4992 24.5451C96.1698 23.8517 96.0052 23.0111 96.0052 22.0231V15.3931H94.2632C93.9685 15.3931 93.7432 15.3237 93.5872 15.1851C93.4312 15.0291 93.3532 14.8211 93.3532 14.5611C93.3532 14.3011 93.4312 14.1017 93.5872 13.9631C93.7432 13.8244 93.9685 13.7551 94.2632 13.7551H96.0052V10.7651C96.0052 10.4184 96.1005 10.1584 96.2912 9.98505C96.4818 9.79438 96.7418 9.69905 97.0712 9.69905C97.4005 9.69905 97.6518 9.79438 97.8252 9.98505C98.0158 10.1584 98.1112 10.4184 98.1112 10.7651V13.7551H101.387C101.682 13.7551 101.907 13.8244 102.063 13.9631C102.219 14.1017 102.297 14.3011 102.297 14.5611C102.297 14.8211 102.219 15.0291 102.063 15.1851C101.907 15.3237 101.682 15.3931 101.387 15.3931H98.1112V21.8151C98.1112 22.8031 98.3192 23.5571 98.7352 24.0771C99.1512 24.5797 99.8272 24.8311 100.763 24.8311C101.092 24.8311 101.37 24.7964 101.595 24.7271C101.838 24.6577 102.037 24.6231 102.193 24.6231C102.349 24.6057 102.479 24.6577 102.583 24.7791C102.687 24.9004 102.739 25.1084 102.739 25.4031C102.739 25.6111 102.696 25.8017 102.609 25.9751C102.54 26.1484 102.41 26.2697 102.219 26.3391C102.011 26.4084 101.734 26.4691 101.387 26.5211C101.058 26.5904 100.754 26.6251 100.477 26.6251Z" fill="black"/>
<path d="M122.398 8.99219C123.392 8.09722 125.588 7.93562 126.562 7.96669C127.535 7.93562 129.731 8.09722 130.726 8.99219C131.969 10.1109 138.495 2.96352 140.266 3.42966C142.037 3.89579 138.836 15.9842 138.774 17.4137C138.712 18.8432 139.303 23.0073 138.774 25.5866C138.246 28.1658 136.319 30.1858 132.87 31.0869C130.11 31.8079 127.349 31.8982 126.562 31.8533C125.774 31.8982 123.013 31.8079 120.253 31.0869C116.804 30.1858 114.877 28.1658 114.349 25.5866C113.821 23.0073 114.411 18.8432 114.349 17.4137C114.287 15.9842 111.086 3.89579 112.857 3.42966C114.629 2.96352 121.155 10.1109 122.398 8.99219Z" fill="black"/>
<path d="M126.562 14.8912V22.8912" stroke="white" stroke-width="2" stroke-linecap="round" stroke-linejoin="round"/>
<path d="M122.562 18.8912H130.562" stroke="white" stroke-width="2" stroke-linecap="round" stroke-linejoin="round"/>
</svg>
