<svg width="164" height="36" viewBox="0 0 164 36" fill="none" xmlns="http://www.w3.org/2000/svg">
<path d="M64.2479 31.2421C63.9013 31.2421 63.6413 31.1468 63.4679 30.9561C63.2946 30.7828 63.2079 30.5228 63.2079 30.1761V14.6281C63.2079 14.2815 63.2946 14.0215 63.4679 13.8481C63.6413 13.6575 63.8926 13.5621 64.2219 13.5621C64.5686 13.5621 64.8286 13.6575 65.0019 13.8481C65.1926 14.0215 65.2879 14.2815 65.2879 14.6281V17.0981L65.0019 16.7341C65.2793 15.7461 65.8253 14.9661 66.6399 14.3941C67.4719 13.8048 68.4599 13.5101 69.6039 13.5101C70.7306 13.5101 71.7099 13.7788 72.5419 14.3161C73.3913 14.8361 74.0413 15.5901 74.4919 16.5781C74.9599 17.5488 75.1939 18.7101 75.1939 20.0621C75.1939 21.3968 74.9599 22.5581 74.4919 23.5461C74.0413 24.5168 73.3999 25.2708 72.5679 25.8081C71.7359 26.3455 70.7479 26.6141 69.6039 26.6141C68.4599 26.6141 67.4806 26.3281 66.6659 25.7561C65.8513 25.1668 65.2966 24.3868 65.0019 23.4161H65.3139V30.1761C65.3139 30.5228 65.2186 30.7828 65.0279 30.9561C64.8373 31.1468 64.5773 31.2421 64.2479 31.2421ZM69.1619 24.9241C69.9593 24.9241 70.6439 24.7335 71.2159 24.3521C71.8053 23.9708 72.2559 23.4161 72.5679 22.6881C72.8973 21.9601 73.0619 21.0848 73.0619 20.0621C73.0619 18.4848 72.7066 17.2801 71.9959 16.4481C71.3026 15.6161 70.3579 15.2001 69.1619 15.2001C68.3819 15.2001 67.6973 15.3908 67.1079 15.7721C66.5186 16.1361 66.0593 16.6821 65.7299 17.4101C65.4179 18.1208 65.2619 19.0048 65.2619 20.0621C65.2619 21.6221 65.6173 22.8268 66.3279 23.6761C67.0386 24.5081 67.9833 24.9241 69.1619 24.9241ZM82.8381 26.6141C81.8155 26.6141 80.9661 26.4321 80.2901 26.0681C79.6315 25.6868 79.1288 25.1235 78.7821 24.3781C78.4528 23.6328 78.2881 22.7055 78.2881 21.5961V14.6281C78.2881 14.2641 78.3748 13.9955 78.5481 13.8221C78.7388 13.6488 78.9988 13.5621 79.3281 13.5621C79.6748 13.5621 79.9348 13.6488 80.1081 13.8221C80.2988 13.9955 80.3941 14.2641 80.3941 14.6281V21.5701C80.3941 22.6795 80.6195 23.5115 81.0701 24.0661C81.5381 24.6035 82.2661 24.8721 83.2541 24.8721C84.3288 24.8721 85.2041 24.5081 85.8801 23.7801C86.5561 23.0521 86.8941 22.0988 86.8941 20.9201V14.6281C86.8941 14.2641 86.9808 13.9955 87.1541 13.8221C87.3448 13.6488 87.6135 13.5621 87.9601 13.5621C88.2895 13.5621 88.5408 13.6488 88.7141 13.8221C88.9048 13.9955 89.0001 14.2641 89.0001 14.6281V25.4701C89.0001 26.1981 88.6621 26.5621 87.9861 26.5621C87.6568 26.5621 87.3968 26.4668 87.2061 26.2761C87.0328 26.0855 86.9461 25.8168 86.9461 25.4701V23.1041L87.2841 23.4681C86.9375 24.4908 86.3655 25.2708 85.5681 25.8081C84.7881 26.3455 83.8781 26.6141 82.8381 26.6141ZM94.0064 26.5621C93.6597 26.5621 93.391 26.4668 93.2004 26.2761C93.027 26.0855 92.9404 25.8168 92.9404 25.4701V14.6281C92.9404 14.2815 93.027 14.0215 93.2004 13.8481C93.3737 13.6575 93.625 13.5621 93.9544 13.5621C94.2837 13.5621 94.535 13.6575 94.7084 13.8481C94.899 14.0215 94.9944 14.2815 94.9944 14.6281V16.7341H94.7344C95.0117 15.7115 95.5404 14.9228 96.3204 14.3681C97.1004 13.8135 98.0624 13.5188 99.2064 13.4841C99.4664 13.4668 99.6744 13.5275 99.8304 13.6661C99.9864 13.7875 100.073 14.0041 100.09 14.3161C100.108 14.6108 100.038 14.8448 99.8824 15.0181C99.7264 15.1915 99.4837 15.2955 99.1544 15.3301L98.7384 15.3821C97.5597 15.4861 96.6497 15.8675 96.0084 16.5261C95.3844 17.1675 95.0724 18.0515 95.0724 19.1781V25.4701C95.0724 25.8168 94.977 26.0855 94.7864 26.2761C94.613 26.4668 94.353 26.5621 94.0064 26.5621ZM106.396 26.6141C105.616 26.6141 104.827 26.5188 104.03 26.3281C103.25 26.1375 102.522 25.8081 101.846 25.3401C101.672 25.2188 101.551 25.0801 101.482 24.9241C101.412 24.7508 101.386 24.5861 101.404 24.4301C101.438 24.2568 101.508 24.1095 101.612 23.9881C101.733 23.8668 101.872 23.7975 102.028 23.7801C102.201 23.7455 102.392 23.7801 102.6 23.8841C103.276 24.3001 103.926 24.5948 104.55 24.7681C105.191 24.9241 105.824 25.0021 106.448 25.0021C107.436 25.0021 108.181 24.8201 108.684 24.4561C109.186 24.0921 109.438 23.5981 109.438 22.9741C109.438 22.4888 109.273 22.1075 108.944 21.8301C108.614 21.5355 108.094 21.3101 107.384 21.1541L105.018 20.6341C103.926 20.4088 103.111 20.0188 102.574 19.4641C102.054 18.9095 101.794 18.1901 101.794 17.3061C101.794 16.5261 101.993 15.8588 102.392 15.3041C102.808 14.7321 103.388 14.2901 104.134 13.9781C104.879 13.6661 105.746 13.5101 106.734 13.5101C107.496 13.5101 108.216 13.6141 108.892 13.8221C109.585 14.0128 110.209 14.3248 110.764 14.7581C110.937 14.8795 111.05 15.0268 111.102 15.2001C111.171 15.3561 111.18 15.5208 111.128 15.6941C111.093 15.8501 111.015 15.9888 110.894 16.1101C110.772 16.2141 110.625 16.2748 110.452 16.2921C110.278 16.3095 110.096 16.2575 109.906 16.1361C109.386 15.7895 108.857 15.5381 108.32 15.3821C107.782 15.2088 107.254 15.1221 106.734 15.1221C105.763 15.1221 105.026 15.3128 104.524 15.6941C104.021 16.0755 103.77 16.5781 103.77 17.2021C103.77 17.6875 103.926 18.0861 104.238 18.3981C104.55 18.7101 105.035 18.9355 105.694 19.0741L108.06 19.5681C109.186 19.8108 110.027 20.2008 110.582 20.7381C111.154 21.2581 111.44 21.9688 111.44 22.8701C111.44 24.0141 110.98 24.9241 110.062 25.6001C109.143 26.2761 107.921 26.6141 106.396 26.6141ZM115.689 31.2421C115.343 31.2421 115.083 31.1468 114.909 30.9561C114.736 30.7828 114.649 30.5228 114.649 30.1761V14.6281C114.649 14.2815 114.736 14.0215 114.909 13.8481C115.083 13.6575 115.334 13.5621 115.663 13.5621C116.01 13.5621 116.27 13.6575 116.443 13.8481C116.634 14.0215 116.729 14.2815 116.729 14.6281V17.0981L116.443 16.7341C116.721 15.7461 117.267 14.9661 118.081 14.3941C118.913 13.8048 119.901 13.5101 121.045 13.5101C122.172 13.5101 123.151 13.7788 123.983 14.3161C124.833 14.8361 125.483 15.5901 125.933 16.5781C126.401 17.5488 126.635 18.7101 126.635 20.0621C126.635 21.3968 126.401 22.5581 125.933 23.5461C125.483 24.5168 124.841 25.2708 124.009 25.8081C123.177 26.3455 122.189 26.6141 121.045 26.6141C119.901 26.6141 118.922 26.3281 118.107 25.7561C117.293 25.1668 116.738 24.3868 116.443 23.4161H116.755V30.1761C116.755 30.5228 116.66 30.7828 116.469 30.9561C116.279 31.1468 116.019 31.2421 115.689 31.2421ZM120.603 24.9241C121.401 24.9241 122.085 24.7335 122.657 24.3521C123.247 23.9708 123.697 23.4161 124.009 22.6881C124.339 21.9601 124.503 21.0848 124.503 20.0621C124.503 18.4848 124.148 17.2801 123.437 16.4481C122.744 15.6161 121.799 15.2001 120.603 15.2001C119.823 15.2001 119.139 15.3908 118.549 15.7721C117.96 16.1361 117.501 16.6821 117.171 17.4101C116.859 18.1208 116.703 19.0048 116.703 20.0621C116.703 21.6221 117.059 22.8268 117.769 23.6761C118.48 24.5081 119.425 24.9241 120.603 24.9241ZM135.502 26.6141C134.167 26.6141 133.014 26.3541 132.044 25.8341C131.09 25.2968 130.345 24.5428 129.808 23.5721C129.288 22.6015 129.028 21.4401 129.028 20.0881C129.028 18.7708 129.288 17.6268 129.808 16.6561C130.328 15.6681 131.038 14.8968 131.94 14.3421C132.858 13.7875 133.916 13.5101 135.112 13.5101C135.961 13.5101 136.724 13.6575 137.4 13.9521C138.076 14.2295 138.648 14.6368 139.116 15.1741C139.601 15.7115 139.965 16.3615 140.208 17.1241C140.468 17.8868 140.598 18.7448 140.598 19.6981C140.598 19.9755 140.52 20.1835 140.364 20.3221C140.208 20.4435 139.982 20.5041 139.688 20.5041H130.64V19.1261H139.194L138.778 19.4641C138.778 18.5281 138.639 17.7395 138.362 17.0981C138.084 16.4395 137.677 15.9368 137.14 15.5901C136.62 15.2435 135.961 15.0701 135.164 15.0701C134.28 15.0701 133.526 15.2781 132.902 15.6941C132.295 16.0928 131.836 16.6561 131.524 17.3841C131.212 18.0948 131.056 18.9268 131.056 19.8801V20.0361C131.056 21.6308 131.437 22.8441 132.2 23.6761C132.98 24.5081 134.08 24.9241 135.502 24.9241C136.091 24.9241 136.672 24.8461 137.244 24.6901C137.833 24.5341 138.405 24.2741 138.96 23.9101C139.202 23.7541 139.419 23.6848 139.61 23.7021C139.818 23.7021 139.982 23.7628 140.104 23.8841C140.225 23.9881 140.303 24.1268 140.338 24.3001C140.39 24.4561 140.372 24.6295 140.286 24.8201C140.216 25.0108 140.069 25.1755 139.844 25.3141C139.272 25.7301 138.596 26.0508 137.816 26.2761C137.036 26.5015 136.264 26.6141 135.502 26.6141ZM149.001 26.6141C147.736 26.6141 146.644 26.3368 145.725 25.7821C144.807 25.2275 144.096 24.4561 143.593 23.4681C143.108 22.4628 142.865 21.3015 142.865 19.9841C142.865 18.9788 143.004 18.0775 143.281 17.2801C143.559 16.4828 143.966 15.8068 144.503 15.2521C145.041 14.6801 145.682 14.2468 146.427 13.9521C147.19 13.6575 148.048 13.5101 149.001 13.5101C149.625 13.5101 150.275 13.6055 150.951 13.7961C151.627 13.9868 152.243 14.3161 152.797 14.7841C152.971 14.9055 153.083 15.0528 153.135 15.2261C153.187 15.3995 153.187 15.5728 153.135 15.7461C153.083 15.9021 152.997 16.0408 152.875 16.1621C152.754 16.2661 152.598 16.3268 152.407 16.3441C152.234 16.3615 152.052 16.3008 151.861 16.1621C151.411 15.8155 150.951 15.5728 150.483 15.4341C150.015 15.2955 149.565 15.2261 149.131 15.2261C148.455 15.2261 147.866 15.3388 147.363 15.5641C146.861 15.7721 146.436 16.0755 146.089 16.4741C145.743 16.8728 145.474 17.3668 145.283 17.9561C145.11 18.5455 145.023 19.2301 145.023 20.0101C145.023 21.5181 145.379 22.7141 146.089 23.5981C146.8 24.4648 147.814 24.8981 149.131 24.8981C149.565 24.8981 150.007 24.8288 150.457 24.6901C150.925 24.5515 151.393 24.3088 151.861 23.9621C152.052 23.8235 152.234 23.7628 152.407 23.7801C152.581 23.7975 152.728 23.8668 152.849 23.9881C152.971 24.0921 153.049 24.2308 153.083 24.4041C153.135 24.5775 153.135 24.7508 153.083 24.9241C153.031 25.0801 152.919 25.2188 152.745 25.3401C152.191 25.7908 151.584 26.1201 150.925 26.3281C150.267 26.5188 149.625 26.6141 149.001 26.6141ZM160.751 26.6141C159.763 26.6141 158.931 26.4408 158.255 26.0941C157.596 25.7301 157.102 25.2101 156.773 24.5341C156.443 23.8408 156.279 23.0001 156.279 22.0121V15.3821H154.537C154.242 15.3821 154.017 15.3128 153.861 15.1741C153.705 15.0181 153.627 14.8101 153.627 14.5501C153.627 14.2901 153.705 14.0908 153.861 13.9521C154.017 13.8135 154.242 13.7441 154.537 13.7441H156.279V10.7541C156.279 10.4075 156.374 10.1475 156.565 9.97413C156.755 9.78346 157.015 9.68813 157.345 9.68813C157.674 9.68813 157.925 9.78346 158.099 9.97413C158.289 10.1475 158.385 10.4075 158.385 10.7541V13.7441H161.661C161.955 13.7441 162.181 13.8135 162.337 13.9521C162.493 14.0908 162.571 14.2901 162.571 14.5501C162.571 14.8101 162.493 15.0181 162.337 15.1741C162.181 15.3128 161.955 15.3821 161.661 15.3821H158.385V21.8041C158.385 22.7921 158.593 23.5461 159.009 24.0661C159.425 24.5688 160.101 24.8201 161.037 24.8201C161.366 24.8201 161.643 24.7855 161.869 24.7161C162.111 24.6468 162.311 24.6121 162.467 24.6121C162.623 24.5948 162.753 24.6468 162.857 24.7681C162.961 24.8895 163.013 25.0975 163.013 25.3921C163.013 25.6001 162.969 25.7908 162.883 25.9641C162.813 26.1375 162.683 26.2588 162.493 26.3281C162.285 26.3975 162.007 26.4581 161.661 26.5101C161.331 26.5795 161.028 26.6141 160.751 26.6141Z" fill="black"/>
<path d="M10.7892 11.6002C11.7836 10.7052 13.9796 10.5436 14.9533 10.5747C15.927 10.5436 18.123 10.7052 19.1174 11.6002C20.3604 12.7189 26.8863 5.5715 28.6576 6.03763C30.4289 6.50376 27.2281 18.5922 27.1659 20.0217C27.1038 21.4511 27.6943 25.6153 27.1659 28.1945C26.6376 30.7738 24.7109 32.7937 21.2615 33.6949C18.502 34.4159 15.7407 34.5062 14.9533 34.4612C14.1659 34.5062 11.4045 34.4159 8.64502 33.6949C5.19563 32.7937 3.26894 30.7738 2.74062 28.1945C2.2123 25.6153 2.80277 21.4511 2.74062 20.0217C2.67847 18.5922 -0.522371 6.50376 1.24894 6.03763C3.02025 5.5715 9.54612 12.7189 10.7892 11.6002Z" fill="black"/>
<path d="M19.4272 28.6172V21.1603" stroke="white" stroke-width="2" stroke-linecap="round" stroke-linejoin="round"/>
<path d="M14.9531 28.6172V16.6862" stroke="white" stroke-width="2" stroke-linecap="round" stroke-linejoin="round"/>
<path d="M10.479 28.6172V24.1431" stroke="white" stroke-width="2" stroke-linecap="round" stroke-linejoin="round"/>
</svg>
