<svg width="35" height="35" viewBox="0 0 35 35" fill="none" xmlns="http://www.w3.org/2000/svg">
<path d="M12.3665 7.301C13.4885 6.29119 15.9663 6.10885 17.065 6.14391C18.1636 6.10885 20.6414 6.29119 21.7634 7.301C23.1659 8.56327 30.5292 0.498743 32.5278 1.02469C34.5264 1.55064 30.9148 15.1902 30.8447 16.8031C30.7746 18.416 31.4408 23.1145 30.8447 26.0247C30.2486 28.935 28.0747 31.2141 24.1827 32.2309C21.0691 33.0444 17.9535 33.1463 17.065 33.0956C16.1765 33.1463 13.0608 33.0444 9.94722 32.2309C6.0552 31.2141 3.88128 28.935 3.28517 26.0247C2.68905 23.1145 3.3553 18.416 3.28517 16.8031C3.21504 15.1902 -0.396524 1.55064 1.60208 1.02469C3.60068 0.498743 10.9639 8.56327 12.3665 7.301Z" stroke="black" stroke-width="2"/>
</svg>
