<svg width="55" height="17" viewBox="0 0 55 17" fill="none" xmlns="http://www.w3.org/2000/svg">
<path d="M23.6531 13.5081C22.9667 13.5081 22.3758 13.3527 21.8803 13.0418C21.3879 12.7279 21.0094 12.2955 20.7447 11.7446C20.48 11.1937 20.3477 10.5628 20.3477 9.85185C20.3477 9.13168 20.4831 8.49615 20.7539 7.94525C21.0247 7.39127 21.4064 6.95886 21.8988 6.64802C22.3912 6.33717 22.9714 6.18175 23.6392 6.18175C24.1778 6.18175 24.6579 6.28178 25.0795 6.48182C25.5012 6.67879 25.8413 6.95578 26.0998 7.31279C26.3614 7.6698 26.5168 8.08682 26.5661 8.56385H25.2227C25.1488 8.23147 24.9795 7.94525 24.7148 7.70519C24.4532 7.46513 24.1024 7.3451 23.6623 7.3451C23.2776 7.3451 22.9406 7.44667 22.6513 7.64979C22.3651 7.84984 22.1419 8.13606 21.9819 8.50846C21.8219 8.87777 21.7418 9.3148 21.7418 9.81954C21.7418 10.3366 21.8203 10.7828 21.9773 11.1583C22.1342 11.5338 22.3558 11.8246 22.642 12.0308C22.9313 12.237 23.2714 12.3401 23.6623 12.3401C23.9239 12.3401 24.1609 12.2924 24.3732 12.197C24.5887 12.0985 24.7687 11.9585 24.9134 11.7769C25.0611 11.5953 25.1642 11.3768 25.2227 11.1214H26.5661C26.5168 11.58 26.3675 11.9893 26.1183 12.3494C25.869 12.7095 25.535 12.9926 25.1165 13.1988C24.701 13.405 24.2132 13.5081 23.6531 13.5081ZM29.4225 9.15476V13.365H28.0422V3.91044H29.404V7.4282H29.4917C29.6579 7.04657 29.9118 6.74342 30.2535 6.51875C30.5951 6.29409 31.0413 6.18175 31.5922 6.18175C32.0785 6.18175 32.5032 6.28178 32.8664 6.48182C33.2326 6.68187 33.5158 6.9804 33.7158 7.37742C33.9189 7.77136 34.0205 8.26378 34.0205 8.85469V13.365H32.6402V9.02089C32.6402 8.50076 32.5063 8.09759 32.2385 7.81137C31.9708 7.52207 31.5984 7.37742 31.1214 7.37742C30.7951 7.37742 30.5028 7.44667 30.2442 7.58516C29.9888 7.72365 29.7872 7.92678 29.6395 8.19454C29.4948 8.45921 29.4225 8.77929 29.4225 9.15476ZM37.926 13.522C37.4767 13.522 37.0705 13.4389 36.7073 13.2727C36.3441 13.1034 36.0564 12.8587 35.844 12.5386C35.6347 12.2186 35.5301 11.8262 35.5301 11.3614C35.5301 10.9613 35.607 10.632 35.7609 10.3735C35.9148 10.115 36.1225 9.91033 36.3841 9.75952C36.6457 9.60872 36.9381 9.49484 37.2613 9.4179C37.5844 9.34096 37.9137 9.28249 38.2492 9.24248C38.6739 9.19323 39.0186 9.15322 39.2833 9.12245C39.548 9.08859 39.7403 9.03473 39.8604 8.96087C39.9804 8.88701 40.0404 8.76698 40.0404 8.60079V8.56847C40.0404 8.1653 39.9265 7.85292 39.6988 7.63133C39.4741 7.40973 39.1386 7.29894 38.6924 7.29894C38.2277 7.29894 37.8614 7.40204 37.5937 7.60824C37.329 7.81137 37.1459 8.03758 37.0443 8.28687L35.7471 7.99141C35.901 7.56054 36.1256 7.21276 36.4211 6.94809C36.7196 6.68033 37.0628 6.48644 37.4506 6.36641C37.8383 6.2433 38.2461 6.18175 38.6739 6.18175C38.9571 6.18175 39.2571 6.21561 39.5741 6.28331C39.8942 6.34794 40.1927 6.46797 40.4697 6.6434C40.7498 6.81883 40.9791 7.06965 41.1576 7.39589C41.3361 7.71904 41.4253 8.13914 41.4253 8.65618V13.365H40.0773V12.3955H40.0219C39.9327 12.574 39.7988 12.7495 39.6203 12.9218C39.4418 13.0942 39.2125 13.2373 38.9324 13.3511C38.6524 13.465 38.3169 13.522 37.926 13.522ZM38.2261 12.414C38.6077 12.414 38.934 12.3386 39.2048 12.1878C39.4787 12.037 39.6865 11.84 39.828 11.5969C39.9727 11.3507 40.045 11.0875 40.045 10.8075V9.8934C39.9958 9.94264 39.9004 9.98881 39.7588 10.0319C39.6203 10.0719 39.4618 10.1073 39.2833 10.1381C39.1048 10.1658 38.9309 10.1919 38.7616 10.2166C38.5924 10.2381 38.4508 10.2566 38.3369 10.272C38.0692 10.3058 37.8245 10.3627 37.6029 10.4428C37.3844 10.5228 37.209 10.6382 37.0766 10.789C36.9474 10.9367 36.8827 11.1337 36.8827 11.3799C36.8827 11.7215 37.0089 11.98 37.2613 12.1555C37.5136 12.3278 37.8353 12.414 38.2261 12.414ZM46.5739 6.27408V7.38204H42.7006V6.27408H46.5739ZM43.7393 4.57522H45.1197V11.283C45.1197 11.5507 45.1597 11.7523 45.2397 11.8877C45.3197 12.0201 45.4228 12.1108 45.549 12.1601C45.6783 12.2063 45.8183 12.2293 45.9691 12.2293C46.0799 12.2293 46.1768 12.2216 46.2599 12.2063C46.343 12.1909 46.4077 12.1786 46.4538 12.1693L46.7031 13.3096C46.6231 13.3404 46.5092 13.3711 46.3615 13.4019C46.2138 13.4358 46.0291 13.4542 45.8075 13.4573C45.4444 13.4635 45.1058 13.3988 44.7919 13.2634C44.478 13.128 44.2241 12.9187 44.0302 12.6356C43.8363 12.3524 43.7393 11.997 43.7393 11.5692V4.57522ZM53.3001 8.00526L52.049 8.22685C51.9967 8.06681 51.9136 7.91447 51.7997 7.76982C51.6889 7.62517 51.5381 7.50668 51.3473 7.41435C51.1565 7.32202 50.918 7.27586 50.6317 7.27586C50.2409 7.27586 49.9147 7.36357 49.6531 7.539C49.3915 7.71134 49.2607 7.93447 49.2607 8.20839C49.2607 8.44536 49.3484 8.63618 49.5238 8.78083C49.6992 8.92548 49.9824 9.04397 50.3732 9.1363L51.4996 9.39482C52.1521 9.54562 52.6384 9.77799 52.9585 10.0919C53.2785 10.4058 53.4386 10.8136 53.4386 11.3153C53.4386 11.74 53.3155 12.1185 53.0692 12.4509C52.8261 12.7802 52.486 13.0388 52.049 13.2265C51.6151 13.4142 51.1119 13.5081 50.5394 13.5081C49.7454 13.5081 49.0975 13.3388 48.5959 13.0003C48.0942 12.6587 47.7865 12.1739 47.6726 11.5461L49.0067 11.343C49.0898 11.6907 49.2607 11.9539 49.5192 12.1324C49.7777 12.3078 50.1147 12.3955 50.5302 12.3955C50.9826 12.3955 51.3442 12.3017 51.6151 12.1139C51.8859 11.9231 52.0213 11.6907 52.0213 11.4168C52.0213 11.1952 51.9382 11.009 51.772 10.8582C51.6089 10.7074 51.3581 10.5936 51.0195 10.5166L49.8192 10.2535C49.1576 10.1027 48.6682 9.86262 48.3512 9.53331C48.0373 9.20401 47.8803 8.78698 47.8803 8.28225C47.8803 7.86369 47.9973 7.49745 48.2312 7.18353C48.4651 6.86961 48.7882 6.62493 49.2006 6.44951C49.613 6.271 50.0855 6.18175 50.6179 6.18175C51.3842 6.18175 51.9875 6.34794 52.4276 6.68033C52.8677 7.00964 53.1585 7.45128 53.3001 8.00526Z" fill="black"/>
<path d="M4.70051 11.3366L1.47559 8.1117L4.70051 4.88678" stroke="black" stroke-linecap="round" stroke-linejoin="round"/>
<path d="M11.7953 13.734V10.6916C11.7953 10.0074 11.5235 9.35117 11.0397 8.86734C10.5559 8.38351 9.89963 8.11169 9.21539 8.11169H1.47559" stroke="black" stroke-linecap="round" stroke-linejoin="round"/>
</svg>
