<svg width="38" height="25" viewBox="0 0 38 25" fill="none" xmlns="http://www.w3.org/2000/svg">
<path d="M15.3944 5.03499C16.2117 4.29945 18.0165 4.16664 18.8167 4.19218C19.617 4.16664 21.4217 4.29945 22.239 5.03499C23.2606 5.9544 28.6238 0.080327 30.0796 0.463419C31.5353 0.846511 28.9047 10.7814 28.8537 11.9562C28.8026 13.131 29.2879 16.5533 28.8537 18.6731C28.4195 20.7928 26.836 22.4529 24.0011 23.1936C21.7332 23.7861 19.4639 23.8603 18.8167 23.8234C18.1696 23.8603 15.9002 23.7861 13.6322 23.1936C10.7974 22.4529 9.21392 20.7928 8.77972 18.6731C8.34552 16.5533 8.83079 13.131 8.77972 11.9562C8.72864 10.7814 6.09803 0.846511 7.55378 0.463419C9.00953 0.080327 14.3728 5.9544 15.3944 5.03499Z" fill="black"/>
<g opacity="0.4">
<path d="M8.02151 9.07045C8.41054 8.32465 9.66859 7.74671 10.249 7.55096C10.8157 7.3186 12.1448 6.93106 12.9273 7.23963C13.9054 7.62536 16.1783 1.98058 17.3241 1.86576C18.47 1.75095 19.242 9.57531 19.5196 10.431C19.7972 11.2867 21.0605 13.6098 21.3163 15.2453C21.5721 16.8807 20.8812 18.4941 19.0474 19.7833C17.5804 20.8146 15.9737 21.4748 15.5 21.6214C15.0461 21.821 13.3996 22.3748 11.6156 22.5568C9.38565 22.7842 7.80669 22.0179 6.92847 20.6147C6.05026 19.2115 5.48267 16.6289 5.13181 15.8005C4.78096 14.9721 0.238073 8.55504 1.179 7.89107C2.11992 7.2271 7.53523 10.0027 8.02151 9.07045Z" fill="black"/>
</g>
<g opacity="0.4">
<path d="M30.4931 9.07039C30.1041 8.32459 28.8461 7.74665 28.2657 7.5509C27.6989 7.31854 26.3699 6.931 25.5874 7.23957C24.6092 7.6253 22.3364 1.98051 21.1905 1.8657C20.0446 1.75089 19.2727 9.57525 18.995 10.4309C18.7174 11.2866 17.4542 13.6097 17.1984 15.2452C16.9426 16.8807 17.6335 18.4941 19.4672 19.7832C20.9342 20.8145 22.5409 21.4747 23.0146 21.6214C23.4686 21.8209 25.115 22.3748 26.899 22.5567C29.129 22.7842 30.708 22.0179 31.5862 20.6147C32.4644 19.2115 33.032 16.6288 33.3828 15.8004C33.7337 14.972 38.2766 8.55498 37.3357 7.89101C36.3947 7.22704 30.9794 10.0026 30.4931 9.07039Z" fill="black"/>
</g>
</svg>
