<svg width="22" height="22" viewBox="0 0 22 22" fill="none" xmlns="http://www.w3.org/2000/svg">
<path d="M7.76516 4.99292C8.49641 4.3348 10.1112 4.21597 10.8272 4.23882C11.5433 4.21597 13.158 4.3348 13.8893 4.99292C14.8033 5.81556 19.6021 0.559766 20.9046 0.902536C22.2072 1.2453 19.8534 10.1345 19.8077 11.1856C19.762 12.2368 20.1962 15.2988 19.8077 17.1955C19.4192 19.0922 18.0025 20.5775 15.466 21.2402C13.4368 21.7703 11.4063 21.8368 10.8272 21.8037C10.2482 21.8368 8.21767 21.7703 6.18848 21.2402C3.65198 20.5775 2.2352 19.0922 1.84671 17.1955C1.45821 15.2988 1.89241 12.2368 1.84671 11.1856C1.801 10.1345 -0.552717 1.2453 0.749806 0.902536C2.05233 0.559766 6.8511 5.81556 7.76516 4.99292Z" fill="#F7F7F7"/>
<path d="M15.1669 12.2962C15.5443 12.4779 15.5443 13.0154 15.1669 13.1972L7.76381 16.7616C7.35579 16.9581 6.91766 16.5543 7.08022 16.1316L8.3131 12.9262C8.35753 12.8106 8.35753 12.6827 8.3131 12.5672L7.08023 9.36172C6.91766 8.93906 7.35579 8.53527 7.76381 8.73172L15.1669 12.2962Z" fill="black"/>
</svg>
