<svg width="140" height="38" viewBox="0 0 140 38" fill="none" xmlns="http://www.w3.org/2000/svg">
<rect x="0.161621" y="0.634949" width="139.231" height="36.5384" rx="15" fill="black"/>
<path d="M117.358 13.1975C117.93 12.6823 119.194 12.5893 119.755 12.6072C120.316 12.5893 121.58 12.6823 122.152 13.1975C122.868 13.8415 126.624 9.72699 127.644 9.99532C128.664 10.2637 126.821 17.2226 126.785 18.0455C126.75 18.8684 127.09 21.2656 126.785 22.7504C126.481 24.2352 125.372 25.398 123.386 25.9168C121.798 26.3318 120.208 26.3838 119.755 26.358C119.302 26.3838 117.712 26.3318 116.123 25.9168C114.138 25.398 113.029 24.2352 112.724 22.7504C112.42 21.2656 112.76 18.8684 112.724 18.0455C112.689 17.2226 110.846 10.2637 111.866 9.99532C112.885 9.72699 116.642 13.8415 117.358 13.1975Z" fill="white"/>
<path d="M119.755 16.1455V22.6731" stroke="black" stroke-width="1.27332" stroke-linecap="round" stroke-linejoin="round"/>
<path d="M116.491 19.4093H123.019" stroke="black" stroke-width="1.27332" stroke-linecap="round" stroke-linejoin="round"/>
<path d="M14.3498 16.9728C14.3202 16.6963 14.1957 16.4811 13.9763 16.327C13.7589 16.173 13.4762 16.096 13.128 16.096C12.8832 16.096 12.6732 16.1329 12.4981 16.2068C12.323 16.2806 12.189 16.3809 12.0961 16.5075C12.0033 16.6341 11.9558 16.7786 11.9537 16.9411C11.9537 17.0761 11.9843 17.1933 12.0455 17.2924C12.1088 17.3916 12.1942 17.476 12.3019 17.5457C12.4095 17.6132 12.5287 17.6702 12.6595 17.7166C12.7904 17.763 12.9222 17.802 13.0552 17.8337L13.6629 17.9856C13.9077 18.0426 14.143 18.1196 14.3688 18.2167C14.5966 18.3137 14.8003 18.4361 14.9796 18.5838C15.1611 18.7316 15.3046 18.9099 15.4101 19.1188C15.5156 19.3277 15.5684 19.5724 15.5684 19.8531C15.5684 20.2329 15.4713 20.5674 15.2772 20.8565C15.083 21.1434 14.8024 21.3682 14.4352 21.5307C14.0702 21.691 13.6281 21.7712 13.109 21.7712C12.6047 21.7712 12.1668 21.6931 11.7954 21.537C11.4262 21.3808 11.1371 21.1529 10.9282 20.8533C10.7214 20.5537 10.6095 20.1886 10.5926 19.7581H11.748C11.7648 19.9839 11.8345 20.1717 11.9569 20.3215C12.0792 20.4714 12.2386 20.5832 12.4348 20.6571C12.6332 20.7309 12.8547 20.7678 13.0995 20.7678C13.3548 20.7678 13.5785 20.7299 13.7705 20.6539C13.9647 20.5758 14.1166 20.4682 14.2263 20.331C14.336 20.1918 14.392 20.0293 14.3941 19.8436C14.392 19.6748 14.3424 19.5355 14.2453 19.4258C14.1482 19.314 14.0121 19.2211 13.837 19.1473C13.664 19.0713 13.4614 19.0038 13.2293 18.9447L12.4918 18.7548C11.9579 18.6176 11.5359 18.4098 11.2257 18.1312C10.9176 17.8506 10.7636 17.4781 10.7636 17.0139C10.7636 16.632 10.867 16.2975 11.0738 16.0105C11.2827 15.7235 11.5665 15.5009 11.9252 15.3427C12.2839 15.1823 12.6901 15.1021 13.1438 15.1021C13.6038 15.1021 14.0069 15.1823 14.3529 15.3427C14.7011 15.5009 14.9744 15.7214 15.1727 16.0042C15.3711 16.2848 15.4734 16.6077 15.4797 16.9728H14.3498ZM18.9923 16.8113V17.6976H16.1975V16.8113H18.9923ZM16.8875 15.6465H18.0333V20.2108C18.0333 20.3648 18.0565 20.483 18.1029 20.5653C18.1514 20.6455 18.2148 20.7003 18.2928 20.7299C18.3709 20.7594 18.4574 20.7742 18.5524 20.7742C18.6241 20.7742 18.6895 20.7689 18.7486 20.7583C18.8098 20.7478 18.8562 20.7383 18.8879 20.7299L19.081 21.6256C19.0198 21.6467 18.9322 21.6699 18.8183 21.6953C18.7064 21.7206 18.5693 21.7353 18.4068 21.7396C18.1198 21.748 17.8613 21.7047 17.6313 21.6098C17.4013 21.5127 17.2188 21.3629 17.0837 21.1603C16.9508 20.9578 16.8854 20.7045 16.8875 20.4007V15.6465ZM21.3496 21.7712C21.0416 21.7712 20.7641 21.7164 20.5172 21.6066C20.2724 21.4948 20.0783 21.3302 19.9348 21.1129C19.7934 20.8955 19.7227 20.6275 19.7227 20.3089C19.7227 20.0346 19.7734 19.8077 19.8746 19.6284C19.9759 19.449 20.1141 19.3055 20.2893 19.1979C20.4644 19.0903 20.6617 19.009 20.8812 18.9542C21.1027 18.8972 21.3317 18.8561 21.568 18.8307C21.8529 18.8012 22.084 18.7748 22.2612 18.7516C22.4385 18.7263 22.5672 18.6883 22.6474 18.6377C22.7297 18.5849 22.7708 18.5037 22.7708 18.3939V18.3749C22.7708 18.1365 22.7001 17.9519 22.5587 17.821C22.4174 17.6902 22.2137 17.6248 21.9479 17.6248C21.6672 17.6248 21.4446 17.686 21.28 17.8084C21.1175 17.9308 21.0078 18.0753 20.9508 18.242L19.881 18.0901C19.9654 17.7947 20.1046 17.5478 20.2988 17.3494C20.4929 17.1489 20.7303 16.9991 21.011 16.8999C21.2916 16.7987 21.6018 16.748 21.9415 16.748C22.1758 16.748 22.4089 16.7755 22.641 16.8303C22.8732 16.8852 23.0852 16.9759 23.2773 17.1025C23.4693 17.227 23.6233 17.3969 23.7394 17.6121C23.8575 17.8274 23.9166 18.0964 23.9166 18.4193V21.6731H22.8151V21.0052H22.7771C22.7075 21.1403 22.6094 21.2669 22.4828 21.3851C22.3583 21.5011 22.2011 21.595 22.0112 21.6668C21.8234 21.7364 21.6029 21.7712 21.3496 21.7712ZM21.6472 20.9293C21.8772 20.9293 22.0766 20.8839 22.2454 20.7932C22.4142 20.7003 22.544 20.5779 22.6347 20.426C22.7276 20.2741 22.774 20.1084 22.774 19.9291V19.3562C22.7381 19.3857 22.6769 19.4131 22.5904 19.4385C22.506 19.4638 22.411 19.4859 22.3055 19.5049C22.2 19.5239 22.0956 19.5408 21.9922 19.5556C21.8888 19.5703 21.7991 19.583 21.7231 19.5935C21.5522 19.6168 21.3992 19.6547 21.2642 19.7075C21.1291 19.7603 21.0226 19.8341 20.9445 19.9291C20.8664 20.0219 20.8274 20.1422 20.8274 20.2899C20.8274 20.5009 20.9044 20.6602 21.0584 20.7678C21.2125 20.8755 21.4087 20.9293 21.6472 20.9293ZM25.0688 21.6731V16.8113H26.1798V17.6216H26.2304C26.319 17.341 26.471 17.1247 26.6862 16.9728C26.9035 16.8187 27.1515 16.7417 27.43 16.7417C27.4933 16.7417 27.564 16.7449 27.6421 16.7512C27.7223 16.7554 27.7887 16.7628 27.8415 16.7733V17.8274C27.793 17.8105 27.7159 17.7957 27.6104 17.783C27.507 17.7683 27.4068 17.7609 27.3097 17.7609C27.1008 17.7609 26.913 17.8063 26.7463 17.897C26.5817 17.9856 26.452 18.1091 26.357 18.2673C26.262 18.4256 26.2146 18.6081 26.2146 18.8149V21.6731H25.0688ZM31.2916 16.8113V17.6976H28.4967V16.8113H31.2916ZM29.1867 15.6465H30.3325V20.2108C30.3325 20.3648 30.3557 20.483 30.4022 20.5653C30.4507 20.6455 30.514 20.7003 30.5921 20.7299C30.6701 20.7594 30.7567 20.7742 30.8516 20.7742C30.9234 20.7742 30.9888 20.7689 31.0479 20.7583C31.1091 20.7478 31.1555 20.7383 31.1871 20.7299L31.3802 21.6256C31.319 21.6467 31.2314 21.6699 31.1175 21.6953C31.0057 21.7206 30.8685 21.7353 30.706 21.7396C30.419 21.748 30.1605 21.7047 29.9305 21.6098C29.7005 21.5127 29.518 21.3629 29.383 21.1603C29.25 20.9578 29.1846 20.7045 29.1867 20.4007V15.6465ZM35.8598 21.7712C35.5517 21.7712 35.2742 21.7164 35.0273 21.6066C34.7825 21.4948 34.5884 21.3302 34.4449 21.1129C34.3035 20.8955 34.2329 20.6275 34.2329 20.3089C34.2329 20.0346 34.2835 19.8077 34.3848 19.6284C34.4861 19.449 34.6243 19.3055 34.7994 19.1979C34.9746 19.0903 35.1719 19.009 35.3913 18.9542C35.6129 18.8972 35.8418 18.8561 36.0782 18.8307C36.363 18.8012 36.5941 18.7748 36.7714 18.7516C36.9486 18.7263 37.0773 18.6883 37.1575 18.6377C37.2398 18.5849 37.281 18.5037 37.281 18.3939V18.3749C37.281 18.1365 37.2103 17.9519 37.0689 17.821C36.9275 17.6902 36.7239 17.6248 36.458 17.6248C36.1774 17.6248 35.9547 17.686 35.7901 17.8084C35.6277 17.9308 35.5179 18.0753 35.461 18.242L34.3911 18.0901C34.4755 17.7947 34.6148 17.5478 34.8089 17.3494C35.0031 17.1489 35.2404 16.9991 35.5211 16.8999C35.8017 16.7987 36.1119 16.748 36.4517 16.748C36.6859 16.748 36.9191 16.7755 37.1512 16.8303C37.3833 16.8852 37.5954 16.9759 37.7874 17.1025C37.9794 17.227 38.1335 17.3969 38.2495 17.6121C38.3677 17.8274 38.4268 18.0964 38.4268 18.4193V21.6731H37.3253V21.0052H37.2873C37.2177 21.1403 37.1195 21.2669 36.9929 21.3851C36.8684 21.5011 36.7112 21.595 36.5213 21.6668C36.3335 21.7364 36.113 21.7712 35.8598 21.7712ZM36.1573 20.9293C36.3873 20.9293 36.5867 20.8839 36.7555 20.7932C36.9243 20.7003 37.0541 20.5779 37.1449 20.426C37.2377 20.2741 37.2841 20.1084 37.2841 19.9291V19.3562C37.2482 19.3857 37.1871 19.4131 37.1005 19.4385C37.0161 19.4638 36.9212 19.4859 36.8157 19.5049C36.7102 19.5239 36.6057 19.5408 36.5023 19.5556C36.3989 19.5703 36.3092 19.583 36.2333 19.5935C36.0623 19.6168 35.9094 19.6547 35.7743 19.7075C35.6393 19.7603 35.5327 19.8341 35.4546 19.9291C35.3766 20.0219 35.3375 20.1422 35.3375 20.2899C35.3375 20.5009 35.4145 20.6602 35.5686 20.7678C35.7226 20.8755 35.9189 20.9293 36.1573 20.9293ZM43.9105 21.7681C43.4252 21.7681 43.0084 21.6615 42.6602 21.4484C42.3142 21.2352 42.0472 20.9409 41.8594 20.5653C41.6737 20.1876 41.5809 19.7529 41.5809 19.2612C41.5809 18.7674 41.6759 18.3317 41.8658 17.954C42.0557 17.5741 42.3237 17.2787 42.6697 17.0677C43.0179 16.8546 43.4294 16.748 43.9042 16.748C44.2988 16.748 44.648 16.8208 44.9519 16.9664C45.2578 17.1099 45.5016 17.3135 45.683 17.5773C45.8645 17.839 45.9679 18.1449 45.9932 18.4952H44.898C44.8537 18.261 44.7482 18.0658 44.5815 17.9097C44.4169 17.7514 44.1964 17.6723 43.92 17.6723C43.6858 17.6723 43.48 17.7356 43.3028 17.8622C43.1255 17.9867 42.9873 18.166 42.8881 18.4003C42.7911 18.6345 42.7425 18.9151 42.7425 19.2422C42.7425 19.5735 42.7911 19.8584 42.8881 20.0968C42.9852 20.3332 43.1213 20.5157 43.2964 20.6444C43.4737 20.771 43.6816 20.8343 43.92 20.8343C44.0888 20.8343 44.2397 20.8027 44.3726 20.7394C44.5077 20.6739 44.6206 20.58 44.7113 20.4577C44.802 20.3353 44.8643 20.1865 44.898 20.0114H45.9932C45.9658 20.3553 45.8645 20.6602 45.6894 20.9261C45.5142 21.1899 45.2758 21.3967 44.974 21.5465C44.6723 21.6942 44.3178 21.7681 43.9105 21.7681ZM49.0548 21.7681C48.58 21.7681 48.1685 21.6636 47.8203 21.4547C47.4722 21.2458 47.2021 20.9535 47.01 20.5779C46.8201 20.2023 46.7252 19.7634 46.7252 19.2612C46.7252 18.759 46.8201 18.319 47.01 17.9413C47.2021 17.5636 47.4722 17.2703 47.8203 17.0614C48.1685 16.8525 48.58 16.748 49.0548 16.748C49.5296 16.748 49.941 16.8525 50.2892 17.0614C50.6374 17.2703 50.9064 17.5636 51.0963 17.9413C51.2884 18.319 51.3844 18.759 51.3844 19.2612C51.3844 19.7634 51.2884 20.2023 51.0963 20.5779C50.9064 20.9535 50.6374 21.2458 50.2892 21.4547C49.941 21.6636 49.5296 21.7681 49.0548 21.7681ZM49.0611 20.8501C49.3185 20.8501 49.5338 20.7794 49.7068 20.6381C49.8798 20.4946 50.0086 20.3026 50.093 20.062C50.1795 19.8214 50.2227 19.5535 50.2227 19.258C50.2227 18.9605 50.1795 18.6915 50.093 18.4509C50.0086 18.2082 49.8798 18.0152 49.7068 17.8717C49.5338 17.7282 49.3185 17.6564 49.0611 17.6564C48.7973 17.6564 48.5779 17.7282 48.4027 17.8717C48.2297 18.0152 48.0999 18.2082 48.0134 18.4509C47.929 18.6915 47.8868 18.9605 47.8868 19.258C47.8868 19.5535 47.929 19.8214 48.0134 20.062C48.0999 20.3026 48.2297 20.4946 48.4027 20.6381C48.5779 20.7794 48.7973 20.8501 49.0611 20.8501ZM53.5027 18.8244V21.6731H52.3569V16.8113H53.452V17.6374H53.509C53.6209 17.3652 53.7992 17.1489 54.0439 16.9886C54.2908 16.8282 54.5957 16.748 54.9587 16.748C55.2942 16.748 55.5865 16.8198 55.8355 16.9633C56.0866 17.1067 56.2807 17.3146 56.4179 17.5868C56.5571 17.859 56.6257 18.1892 56.6236 18.5775V21.6731H55.4778V18.7548C55.4778 18.4298 55.3934 18.1755 55.2246 17.9919C55.0579 17.8084 54.8268 17.7166 54.5314 17.7166C54.3309 17.7166 54.1526 17.7609 53.9965 17.8495C53.8424 17.936 53.7211 18.0616 53.6325 18.2262C53.5459 18.3908 53.5027 18.5902 53.5027 18.8244ZM61.957 16.8113L60.2256 21.6731H58.9595L57.2281 16.8113H58.4499L59.5672 20.4228H59.6179L60.7384 16.8113H61.957ZM64.7368 21.7681C64.2494 21.7681 63.8284 21.6668 63.4739 21.4642C63.1215 21.2595 62.8504 20.9704 62.6604 20.5969C62.4705 20.2213 62.3756 19.7792 62.3756 19.2707C62.3756 18.7706 62.4705 18.3317 62.6604 17.954C62.8525 17.5741 63.1205 17.2787 63.4644 17.0677C63.8084 16.8546 64.2125 16.748 64.6767 16.748C64.9763 16.748 65.2591 16.7966 65.525 16.8936C65.793 16.9886 66.0293 17.1363 66.234 17.3367C66.4408 17.5372 66.6033 17.7925 66.7214 18.1027C66.8396 18.4108 66.8987 18.778 66.8987 19.2042V19.5556H62.9137V18.7833H65.8003C65.7982 18.5638 65.7508 18.3686 65.6579 18.1977C65.5651 18.0247 65.4353 17.8886 65.2686 17.7894C65.104 17.6902 64.912 17.6406 64.6925 17.6406C64.4583 17.6406 64.2526 17.6976 64.0753 17.8115C63.898 17.9234 63.7598 18.0711 63.6607 18.2547C63.5636 18.4361 63.514 18.6355 63.5119 18.8529V19.5271C63.5119 19.8098 63.5636 20.0525 63.667 20.2551C63.7704 20.4555 63.9149 20.6096 64.1006 20.7172C64.2863 20.8227 64.5037 20.8755 64.7527 20.8755C64.9194 20.8755 65.0702 20.8522 65.2053 20.8058C65.3403 20.7573 65.4574 20.6866 65.5566 20.5938C65.6558 20.5009 65.7307 20.3859 65.7814 20.2487L66.8512 20.369C66.7837 20.6518 66.655 20.8987 66.465 21.1097C66.2772 21.3186 66.0367 21.4811 65.7434 21.5971C65.4501 21.7111 65.1145 21.7681 64.7368 21.7681ZM67.868 21.6731V16.8113H68.979V17.6216H69.0297C69.1183 17.341 69.2702 17.1247 69.4854 16.9728C69.7028 16.8187 69.9507 16.7417 70.2293 16.7417C70.2926 16.7417 70.3633 16.7449 70.4413 16.7512C70.5215 16.7554 70.588 16.7628 70.6408 16.7733V17.8274C70.5922 17.8105 70.5152 17.7957 70.4097 17.783C70.3063 17.7683 70.2061 17.7609 70.109 17.7609C69.9001 17.7609 69.7123 17.8063 69.5456 17.897C69.381 17.9856 69.2512 18.1091 69.1563 18.2673C69.0613 18.4256 69.0138 18.6081 69.0138 18.8149V21.6731H67.868ZM75.2446 18.0964L74.2 18.2103C74.1705 18.1048 74.1188 18.0057 74.0449 17.9128C73.9732 17.82 73.8761 17.7451 73.7537 17.6881C73.6314 17.6311 73.4815 17.6026 73.3043 17.6026C73.0658 17.6026 72.8654 17.6543 72.7029 17.7577C72.5425 17.8611 72.4634 17.9951 72.4655 18.1597C72.4634 18.3011 72.5151 18.4161 72.6206 18.5047C72.7282 18.5933 72.9055 18.6661 73.1524 18.7231L73.9816 18.9004C74.4416 18.9995 74.7835 19.1567 75.0072 19.372C75.233 19.5872 75.3469 19.8689 75.349 20.2171C75.3469 20.5231 75.2572 20.7932 75.08 21.0274C74.9048 21.2595 74.6611 21.441 74.3488 21.5718C74.0365 21.7026 73.6778 21.7681 73.2726 21.7681C72.6776 21.7681 72.1986 21.6436 71.8356 21.3946C71.4727 21.1434 71.2564 20.7942 71.1868 20.3469L72.3041 20.2393C72.3547 20.4587 72.4623 20.6244 72.6269 20.7362C72.7915 20.848 73.0057 20.9039 73.2695 20.9039C73.5417 20.9039 73.7601 20.848 73.9247 20.7362C74.0914 20.6244 74.1747 20.4861 74.1747 20.3215C74.1747 20.1823 74.1209 20.0673 74.0133 19.9765C73.9078 19.8858 73.7432 19.8162 73.5195 19.7676L72.6902 19.5935C72.2239 19.4965 71.8789 19.3329 71.6552 19.1029C71.4315 18.8708 71.3207 18.5775 71.3229 18.223C71.3207 17.9234 71.402 17.6638 71.5666 17.4444C71.7333 17.2228 71.9643 17.0519 72.2598 16.9316C72.5573 16.8092 72.9002 16.748 73.2885 16.748C73.8582 16.748 74.3066 16.8694 74.6337 17.112C74.9629 17.3547 75.1665 17.6828 75.2446 18.0964ZM77.6928 21.7712C77.3848 21.7712 77.1073 21.7164 76.8604 21.6066C76.6156 21.4948 76.4215 21.3302 76.278 21.1129C76.1366 20.8955 76.0659 20.6275 76.0659 20.3089C76.0659 20.0346 76.1166 19.8077 76.2179 19.6284C76.3191 19.449 76.4574 19.3055 76.6325 19.1979C76.8076 19.0903 77.0049 19.009 77.2244 18.9542C77.446 18.8972 77.6749 18.8561 77.9112 18.8307C78.1961 18.8012 78.4272 18.7748 78.6044 18.7516C78.7817 18.7263 78.9104 18.6883 78.9906 18.6377C79.0729 18.5849 79.114 18.5037 79.114 18.3939V18.3749C79.114 18.1365 79.0433 17.9519 78.902 17.821C78.7606 17.6902 78.557 17.6248 78.2911 17.6248C78.0104 17.6248 77.7878 17.686 77.6232 17.8084C77.4607 17.9308 77.351 18.0753 77.294 18.242L76.2242 18.0901C76.3086 17.7947 76.4479 17.5478 76.642 17.3494C76.8361 17.1489 77.0735 16.9991 77.3542 16.8999C77.6348 16.7987 77.945 16.748 78.2847 16.748C78.519 16.748 78.7521 16.7755 78.9843 16.8303C79.2164 16.8852 79.4284 16.9759 79.6205 17.1025C79.8125 17.227 79.9665 17.3969 80.0826 17.6121C80.2008 17.8274 80.2598 18.0964 80.2598 18.4193V21.6731H79.1583V21.0052H79.1204C79.0507 21.1403 78.9526 21.2669 78.826 21.3851C78.7015 21.5011 78.5443 21.595 78.3544 21.6668C78.1666 21.7364 77.9461 21.7712 77.6928 21.7712ZM77.9904 20.9293C78.2204 20.9293 78.4198 20.8839 78.5886 20.7932C78.7574 20.7003 78.8872 20.5779 78.9779 20.426C79.0708 20.2741 79.1172 20.1084 79.1172 19.9291V19.3562C79.0813 19.3857 79.0201 19.4131 78.9336 19.4385C78.8492 19.4638 78.7543 19.4859 78.6487 19.5049C78.5432 19.5239 78.4388 19.5408 78.3354 19.5556C78.232 19.5703 78.1423 19.583 78.0663 19.5935C77.8954 19.6168 77.7424 19.6547 77.6074 19.7075C77.4723 19.7603 77.3658 19.8341 77.2877 19.9291C77.2096 20.0219 77.1706 20.1422 77.1706 20.2899C77.1706 20.5009 77.2476 20.6602 77.4016 20.7678C77.5557 20.8755 77.7519 20.9293 77.9904 20.9293ZM83.8397 16.8113V17.6976H81.0448V16.8113H83.8397ZM81.7348 15.6465H82.8806V20.2108C82.8806 20.3648 82.9039 20.483 82.9503 20.5653C82.9988 20.6455 83.0621 20.7003 83.1402 20.7299C83.2183 20.7594 83.3048 20.7742 83.3997 20.7742C83.4715 20.7742 83.5369 20.7689 83.596 20.7583C83.6572 20.7478 83.7036 20.7383 83.7352 20.7299L83.9283 21.6256C83.8671 21.6467 83.7796 21.6699 83.6656 21.6953C83.5538 21.7206 83.4166 21.7353 83.2541 21.7396C82.9672 21.748 82.7087 21.7047 82.4787 21.6098C82.2487 21.5127 82.0661 21.3629 81.9311 21.1603C81.7981 20.9578 81.7327 20.7045 81.7348 20.4007V15.6465ZM84.798 21.6731V16.8113H85.9438V21.6731H84.798ZM85.374 16.1213C85.1926 16.1213 85.0364 16.0612 84.9056 15.9409C84.7748 15.8185 84.7093 15.6718 84.7093 15.5009C84.7093 15.3279 84.7748 15.1812 84.9056 15.061C85.0364 14.9386 85.1926 14.8774 85.374 14.8774C85.5576 14.8774 85.7138 14.9386 85.8425 15.061C85.9733 15.1812 86.0387 15.3279 86.0387 15.5009C86.0387 15.6718 85.9733 15.8185 85.8425 15.9409C85.7138 16.0612 85.5576 16.1213 85.374 16.1213ZM89.2427 21.7681C88.7679 21.7681 88.3565 21.6636 88.0083 21.4547C87.6601 21.2458 87.39 20.9535 87.198 20.5779C87.0081 20.2023 86.9131 19.7634 86.9131 19.2612C86.9131 18.759 87.0081 18.319 87.198 17.9413C87.39 17.5636 87.6601 17.2703 88.0083 17.0614C88.3565 16.8525 88.7679 16.748 89.2427 16.748C89.7175 16.748 90.129 16.8525 90.4772 17.0614C90.8253 17.2703 91.0944 17.5636 91.2843 17.9413C91.4763 18.319 91.5723 18.759 91.5723 19.2612C91.5723 19.7634 91.4763 20.2023 91.2843 20.5779C91.0944 20.9535 90.8253 21.2458 90.4772 21.4547C90.129 21.6636 89.7175 21.7681 89.2427 21.7681ZM89.2491 20.8501C89.5065 20.8501 89.7217 20.7794 89.8948 20.6381C90.0678 20.4946 90.1965 20.3026 90.2809 20.062C90.3674 19.8214 90.4107 19.5535 90.4107 19.258C90.4107 18.9605 90.3674 18.6915 90.2809 18.4509C90.1965 18.2082 90.0678 18.0152 89.8948 17.8717C89.7217 17.7282 89.5065 17.6564 89.2491 17.6564C88.9853 17.6564 88.7658 17.7282 88.5907 17.8717C88.4177 18.0152 88.2879 18.2082 88.2014 18.4509C88.117 18.6915 88.0748 18.9605 88.0748 19.258C88.0748 19.5535 88.117 19.8214 88.2014 20.062C88.2879 20.3026 88.4177 20.4946 88.5907 20.6381C88.7658 20.7794 88.9853 20.8501 89.2491 20.8501ZM93.6906 18.8244V21.6731H92.5448V16.8113H93.64V17.6374H93.697C93.8088 17.3652 93.9871 17.1489 94.2319 16.9886C94.4788 16.8282 94.7837 16.748 95.1466 16.748C95.4822 16.748 95.7744 16.8198 96.0234 16.9633C96.2745 17.1067 96.4687 17.3146 96.6058 17.5868C96.7451 17.859 96.8137 18.1892 96.8115 18.5775V21.6731H95.6657V18.7548C95.6657 18.4298 95.5813 18.1755 95.4125 17.9919C95.2458 17.8084 95.0148 17.7166 94.7193 17.7166C94.5189 17.7166 94.3406 17.7609 94.1844 17.8495C94.0304 17.936 93.909 18.0616 93.8204 18.2262C93.7339 18.3908 93.6906 18.5902 93.6906 18.8244Z" fill="white"/>
</svg>
