<svg width="366" height="104" viewBox="0 0 366 104" fill="none" xmlns="http://www.w3.org/2000/svg">
<g filter="url(#filter0_d_61_867)">
<rect x="16.9941" y="11.8137" width="332" height="70" rx="15" fill="white"/>
<rect width="31.1111" height="31.1111" transform="translate(38.7892 31.2582)" fill="white"/>
<path fill-rule="evenodd" clip-rule="evenodd" d="M68.6558 47.1525C68.6558 46.0954 68.561 45.079 68.3848 44.1033H54.3447V49.8697H62.3676C62.022 51.7332 60.9717 53.312 59.3929 54.3691V58.1095H64.2107C67.0296 55.5142 68.6558 51.6925 68.6558 47.1525Z" fill="#4285F4"/>
<path fill-rule="evenodd" clip-rule="evenodd" d="M54.3446 61.7209C58.3696 61.7209 61.7441 60.386 64.2106 58.1093L59.3928 54.3689C58.0579 55.2633 56.3504 55.7918 54.3446 55.7918C50.4619 55.7918 47.1755 53.1695 46.0033 49.6459H41.0228V53.5083C43.4758 58.3803 48.5172 61.7209 54.3446 61.7209Z" fill="#34A853"/>
<path fill-rule="evenodd" clip-rule="evenodd" d="M46.0034 49.6462C45.7053 48.7518 45.5359 47.7963 45.5359 46.8138C45.5359 45.8313 45.7053 44.8758 46.0034 43.9814V40.119H41.023C40.0133 42.1315 39.4374 44.4083 39.4374 46.8138C39.4374 49.2193 40.0133 51.4961 41.023 53.5086L46.0034 49.6462Z" fill="#FBBC05"/>
<path fill-rule="evenodd" clip-rule="evenodd" d="M54.3446 37.8354C56.5333 37.8354 58.4984 38.5875 60.0433 40.0647L64.319 35.789C61.7373 33.3835 58.3629 31.9063 54.3446 31.9063C48.5172 31.9063 43.4758 35.2469 41.0228 40.1189L46.0033 43.9813C47.1755 40.4577 50.4619 37.8354 54.3446 37.8354Z" fill="#EA4335"/>
<path d="M103.308 43.0793H101.01C100.922 42.5883 100.757 42.1562 100.517 41.783C100.276 41.4098 99.9816 41.0931 99.633 40.8329C99.2844 40.5726 98.894 40.3762 98.4619 40.2436C98.0347 40.1111 97.5805 40.0448 97.0993 40.0448C96.2302 40.0448 95.4519 40.2633 94.7645 40.7003C94.082 41.1373 93.5419 41.7781 93.1441 42.6226C92.7513 43.4672 92.5549 44.4983 92.5549 45.7161C92.5549 46.9436 92.7513 47.9797 93.1441 48.8242C93.5419 49.6688 94.0844 50.3071 94.7719 50.7392C95.4593 51.1713 96.2327 51.3874 97.0919 51.3874C97.5682 51.3874 98.02 51.3235 98.4472 51.1959C98.8793 51.0633 99.2696 50.8693 99.6182 50.614C99.9669 50.3587 100.261 50.0469 100.502 49.6786C100.748 49.3054 100.917 48.8783 101.01 48.3971L103.308 48.4044C103.186 49.1459 102.947 49.8284 102.594 50.452C102.245 51.0707 101.796 51.6059 101.246 52.0576C100.701 52.5044 100.077 52.8506 99.3752 53.0961C98.673 53.3416 97.907 53.4644 97.0772 53.4644C95.7711 53.4644 94.6074 53.155 93.586 52.5364C92.5647 51.9128 91.7594 51.0216 91.1702 49.8628C90.5859 48.7039 90.2938 47.3217 90.2938 45.7161C90.2938 44.1055 90.5884 42.7233 91.1776 41.5694C91.7668 40.4106 92.5721 39.5218 93.5934 38.9032C94.6147 38.2796 95.776 37.9678 97.0772 37.9678C97.8776 37.9678 98.6239 38.0831 99.3163 38.3139C100.014 38.5398 100.64 38.8737 101.194 39.3156C101.749 39.7526 102.208 40.2878 102.572 40.9213C102.935 41.5498 103.181 42.2691 103.308 43.0793ZM110.62 53.4865C109.56 53.4865 108.634 53.2434 107.843 52.7573C107.053 52.2712 106.439 51.5911 106.002 50.7171C105.565 49.8431 105.347 48.8218 105.347 47.6532C105.347 46.4796 105.565 45.4534 106.002 44.5745C106.439 43.6955 107.053 43.013 107.843 42.5269C108.634 42.0408 109.56 41.7977 110.62 41.7977C111.681 41.7977 112.606 42.0408 113.397 42.5269C114.187 43.013 114.801 43.6955 115.238 44.5745C115.675 45.4534 115.894 46.4796 115.894 47.6532C115.894 48.8218 115.675 49.8431 115.238 50.7171C114.801 51.5911 114.187 52.2712 113.397 52.7573C112.606 53.2434 111.681 53.4865 110.62 53.4865ZM110.628 51.6378C111.315 51.6378 111.885 51.4561 112.336 51.0928C112.788 50.7294 113.122 50.2457 113.338 49.6418C113.559 49.0378 113.669 48.3725 113.669 47.6458C113.669 46.924 113.559 46.2611 113.338 45.6572C113.122 45.0483 112.788 44.5597 112.336 44.1915C111.885 43.8232 111.315 43.6391 110.628 43.6391C109.935 43.6391 109.361 43.8232 108.904 44.1915C108.452 44.5597 108.116 45.0483 107.895 45.6572C107.679 46.2611 107.571 46.924 107.571 47.6458C107.571 48.3725 107.679 49.0378 107.895 49.6418C108.116 50.2457 108.452 50.7294 108.904 51.0928C109.361 51.4561 109.935 51.6378 110.628 51.6378ZM120.554 46.541V53.2582H118.352V41.945H120.466V43.7864H120.606C120.866 43.1873 121.274 42.7061 121.828 42.3428C122.388 41.9794 123.093 41.7977 123.942 41.7977C124.713 41.7977 125.388 41.9598 125.968 42.2838C126.547 42.603 126.996 43.0793 127.316 43.7127C127.635 44.3461 127.794 45.1293 127.794 46.0622V53.2582H125.592V46.3274C125.592 45.5074 125.378 44.8666 124.951 44.405C124.524 43.9386 123.937 43.7053 123.191 43.7053C122.68 43.7053 122.226 43.8158 121.828 44.0368C121.436 44.2577 121.124 44.5818 120.893 45.009C120.667 45.4313 120.554 45.9419 120.554 46.541ZM136.029 41.945V43.7127H129.849V41.945H136.029ZM131.506 39.2346H133.709V49.9364C133.709 50.3636 133.772 50.6852 133.9 50.9013C134.028 51.1124 134.192 51.2573 134.394 51.3358C134.6 51.4095 134.823 51.4463 135.064 51.4463C135.241 51.4463 135.395 51.434 135.528 51.4095C135.66 51.3849 135.764 51.3653 135.837 51.3505L136.235 53.1698C136.107 53.2189 135.926 53.268 135.69 53.3171C135.454 53.3711 135.16 53.4006 134.806 53.4055C134.227 53.4153 133.687 53.3122 133.186 53.0961C132.685 52.8801 132.28 52.5462 131.97 52.0944C131.661 51.6427 131.506 51.0756 131.506 50.3931V39.2346ZM138.465 53.2582V41.945H140.667V53.2582H138.465ZM139.577 40.1995C139.194 40.1995 138.865 40.0718 138.59 39.8165C138.32 39.5562 138.185 39.2469 138.185 38.8884C138.185 38.5251 138.32 38.2157 138.59 37.9604C138.865 37.7002 139.194 37.57 139.577 37.57C139.96 37.57 140.286 37.7002 140.557 37.9604C140.832 38.2157 140.969 38.5251 140.969 38.8884C140.969 39.2469 140.832 39.5562 140.557 39.8165C140.286 40.0718 139.96 40.1995 139.577 40.1995ZM145.832 46.541V53.2582H143.63V41.945H145.744V43.7864H145.884C146.144 43.1873 146.551 42.7061 147.106 42.3428C147.666 41.9794 148.371 41.7977 149.22 41.7977C149.991 41.7977 150.666 41.9598 151.245 42.2838C151.825 42.603 152.274 43.0793 152.593 43.7127C152.912 44.3461 153.072 45.1293 153.072 46.0622V53.2582H150.87V46.3274C150.87 45.5074 150.656 44.8666 150.229 44.405C149.802 43.9386 149.215 43.7053 148.469 43.7053C147.958 43.7053 147.504 43.8158 147.106 44.0368C146.713 44.2577 146.402 44.5818 146.171 45.009C145.945 45.4313 145.832 45.9419 145.832 46.541ZM163.192 48.5665V41.945H165.402V53.2582H163.236V51.299H163.118C162.858 51.9029 162.441 52.4062 161.866 52.8089C161.297 53.2066 160.587 53.4055 159.738 53.4055C159.011 53.4055 158.368 53.2459 157.808 52.9267C157.253 52.6027 156.816 52.1239 156.497 51.4905C156.183 50.8571 156.026 50.0739 156.026 49.1409V41.945H158.228V48.8758C158.228 49.6467 158.441 50.2605 158.869 50.7171C159.296 51.1738 159.851 51.4021 160.533 51.4021C160.946 51.4021 161.356 51.299 161.763 51.0928C162.176 50.8865 162.517 50.5747 162.787 50.1574C163.062 49.74 163.197 49.2097 163.192 48.5665ZM173.236 53.4865C172.122 53.4865 171.162 53.2483 170.357 52.7721C169.556 52.2909 168.938 51.6157 168.501 50.7466C168.068 49.8726 167.852 48.8488 167.852 47.6753C167.852 46.5164 168.068 45.4951 168.501 44.6113C168.938 43.7274 169.546 43.0376 170.327 42.5416C171.113 42.0457 172.031 41.7977 173.082 41.7977C173.72 41.7977 174.339 41.9033 174.938 42.1144C175.537 42.3256 176.075 42.657 176.551 43.1088C177.027 43.5605 177.403 44.1473 177.678 44.8691C177.953 45.586 178.09 46.4575 178.09 47.4838V48.2645H169.097V46.6146H175.932C175.932 46.0352 175.814 45.5221 175.579 45.0753C175.343 44.6236 175.012 44.2676 174.584 44.0073C174.162 43.7471 173.666 43.617 173.097 43.617C172.478 43.617 171.938 43.7692 171.476 44.0736C171.019 44.3731 170.666 44.7659 170.416 45.2521C170.17 45.7333 170.047 46.2562 170.047 46.8209V48.1098C170.047 48.866 170.18 49.5092 170.445 50.0395C170.715 50.5698 171.091 50.9749 171.572 51.2548C172.053 51.5298 172.615 51.6673 173.259 51.6673C173.676 51.6673 174.056 51.6083 174.4 51.4905C174.744 51.3677 175.041 51.1861 175.291 50.9455C175.542 50.7049 175.733 50.4078 175.866 50.0542L177.95 50.4299C177.783 51.0437 177.484 51.5813 177.052 52.0429C176.625 52.4995 176.087 52.8555 175.439 53.1109C174.795 53.3613 174.061 53.4865 173.236 53.4865ZM188.475 53.2582L185.146 41.945H187.422L189.639 50.2531H189.75L191.974 41.945H194.25L196.459 50.2163H196.57L198.772 41.945H201.048L197.726 53.2582H195.48L193.182 45.09H193.012L190.714 53.2582H188.475ZM203.138 53.2582V41.945H205.34V53.2582H203.138ZM204.25 40.1995C203.867 40.1995 203.538 40.0718 203.263 39.8165C202.993 39.5562 202.858 39.2469 202.858 38.8884C202.858 38.5251 202.993 38.2157 203.263 37.9604C203.538 37.7002 203.867 37.57 204.25 37.57C204.633 37.57 204.959 37.7002 205.23 37.9604C205.505 38.2157 205.642 38.5251 205.642 38.8884C205.642 39.2469 205.505 39.5562 205.23 39.8165C204.959 40.0718 204.633 40.1995 204.25 40.1995ZM213.584 41.945V43.7127H207.404V41.945H213.584ZM209.061 39.2346H211.264V49.9364C211.264 50.3636 211.327 50.6852 211.455 50.9013C211.583 51.1124 211.747 51.2573 211.949 51.3358C212.155 51.4095 212.378 51.4463 212.619 51.4463C212.796 51.4463 212.95 51.434 213.083 51.4095C213.215 51.3849 213.319 51.3653 213.392 51.3505L213.79 53.1698C213.662 53.2189 213.481 53.268 213.245 53.3171C213.009 53.3711 212.715 53.4006 212.361 53.4055C211.782 53.4153 211.242 53.3122 210.741 53.0961C210.24 52.8801 209.835 52.5462 209.525 52.0944C209.216 51.6427 209.061 51.0756 209.061 50.3931V39.2346ZM218.465 46.541V53.2582H216.263V38.174H218.436V43.7864H218.576C218.841 43.1775 219.246 42.6938 219.791 42.3354C220.336 41.9769 221.048 41.7977 221.927 41.7977C222.703 41.7977 223.38 41.9573 223.96 42.2765C224.544 42.5956 224.996 43.0719 225.315 43.7053C225.639 44.3339 225.801 45.1195 225.801 46.0622V53.2582H223.599V46.3274C223.599 45.4976 223.385 44.8543 222.958 44.3977C222.531 43.9361 221.937 43.7053 221.175 43.7053C220.655 43.7053 220.189 43.8158 219.776 44.0368C219.369 44.2577 219.047 44.5818 218.811 45.009C218.58 45.4313 218.465 45.9419 218.465 46.541ZM244.614 42.9394C244.471 42.4925 244.28 42.0923 244.039 41.7388C243.804 41.3804 243.521 41.0759 243.192 40.8255C242.863 40.5702 242.488 40.3762 242.065 40.2436C241.648 40.1111 241.189 40.0448 240.688 40.0448C239.839 40.0448 239.073 40.2633 238.39 40.7003C237.708 41.1373 237.167 41.7781 236.77 42.6226C236.377 43.4623 236.18 44.491 236.18 45.7087C236.18 46.9314 236.379 47.965 236.777 48.8095C237.175 49.6541 237.72 50.2948 238.412 50.7319C239.105 51.1689 239.893 51.3874 240.776 51.3874C241.596 51.3874 242.311 51.2204 242.92 50.8865C243.534 50.5526 244.007 50.0813 244.341 49.4724C244.68 48.8586 244.849 48.1368 244.849 47.307L245.439 47.4175H241.123V45.5393H247.052V47.2554C247.052 48.5223 246.782 49.6222 246.242 50.5551C245.706 51.4831 244.965 52.2 244.017 52.7058C243.074 53.2115 241.994 53.4644 240.776 53.4644C239.411 53.4644 238.213 53.1501 237.182 52.5216C236.156 51.8931 235.356 51.0019 234.781 49.848C234.207 48.6892 233.919 47.3144 233.919 45.7234C233.919 44.5204 234.086 43.4402 234.42 42.4827C234.754 41.5252 235.223 40.7126 235.827 40.0448C236.436 39.3721 237.15 38.859 237.97 38.5054C238.795 38.147 239.696 37.9678 240.673 37.9678C241.488 37.9678 242.247 38.0881 242.949 38.3287C243.656 38.5693 244.285 38.9105 244.835 39.3524C245.39 39.7944 245.849 40.3198 246.212 40.9286C246.575 41.5326 246.821 42.2028 246.949 42.9394H244.614ZM254.529 53.4865C253.469 53.4865 252.543 53.2434 251.753 52.7573C250.962 52.2712 250.348 51.5911 249.911 50.7171C249.474 49.8431 249.256 48.8218 249.256 47.6532C249.256 46.4796 249.474 45.4534 249.911 44.5745C250.348 43.6955 250.962 43.013 251.753 42.5269C252.543 42.0408 253.469 41.7977 254.529 41.7977C255.59 41.7977 256.516 42.0408 257.306 42.5269C258.097 43.013 258.71 43.6955 259.147 44.5745C259.584 45.4534 259.803 46.4796 259.803 47.6532C259.803 48.8218 259.584 49.8431 259.147 50.7171C258.71 51.5911 258.097 52.2712 257.306 52.7573C256.516 53.2434 255.59 53.4865 254.529 53.4865ZM254.537 51.6378C255.224 51.6378 255.794 51.4561 256.245 51.0928C256.697 50.7294 257.031 50.2457 257.247 49.6418C257.468 49.0378 257.579 48.3725 257.579 47.6458C257.579 46.924 257.468 46.2611 257.247 45.6572C257.031 45.0483 256.697 44.5597 256.245 44.1915C255.794 43.8232 255.224 43.6391 254.537 43.6391C253.844 43.6391 253.27 43.8232 252.813 44.1915C252.361 44.5597 252.025 45.0483 251.804 45.6572C251.588 46.2611 251.48 46.924 251.48 47.6458C251.48 48.3725 251.588 49.0378 251.804 49.6418C252.025 50.2457 252.361 50.7294 252.813 51.0928C253.27 51.4561 253.844 51.6378 254.537 51.6378ZM267.026 53.4865C265.966 53.4865 265.04 53.2434 264.25 52.7573C263.459 52.2712 262.845 51.5911 262.408 50.7171C261.971 49.8431 261.753 48.8218 261.753 47.6532C261.753 46.4796 261.971 45.4534 262.408 44.5745C262.845 43.6955 263.459 43.013 264.25 42.5269C265.04 42.0408 265.966 41.7977 267.026 41.7977C268.087 41.7977 269.013 42.0408 269.803 42.5269C270.594 43.013 271.207 43.6955 271.644 44.5745C272.081 45.4534 272.3 46.4796 272.3 47.6532C272.3 48.8218 272.081 49.8431 271.644 50.7171C271.207 51.5911 270.594 52.2712 269.803 52.7573C269.013 53.2434 268.087 53.4865 267.026 53.4865ZM267.034 51.6378C267.721 51.6378 268.291 51.4561 268.743 51.0928C269.194 50.7294 269.528 50.2457 269.744 49.6418C269.965 49.0378 270.076 48.3725 270.076 47.6458C270.076 46.924 269.965 46.2611 269.744 45.6572C269.528 45.0483 269.194 44.5597 268.743 44.1915C268.291 43.8232 267.721 43.6391 267.034 43.6391C266.341 43.6391 265.767 43.8232 265.31 44.1915C264.859 44.5597 264.522 45.0483 264.301 45.6572C264.085 46.2611 263.977 46.924 263.977 47.6458C263.977 48.3725 264.085 49.0378 264.301 49.6418C264.522 50.2457 264.859 50.7294 265.31 51.0928C265.767 51.4561 266.341 51.6378 267.034 51.6378ZM279.501 57.7363C278.603 57.7363 277.83 57.6184 277.181 57.3827C276.538 57.1471 276.013 56.8353 275.605 56.4473C275.198 56.0594 274.893 55.6347 274.692 55.1731L276.585 54.3924C276.717 54.6085 276.894 54.8368 277.115 55.0774C277.341 55.3229 277.645 55.5316 278.028 55.7034C278.416 55.8753 278.915 55.9612 279.524 55.9612C280.358 55.9612 281.048 55.7575 281.593 55.3499C282.138 54.9473 282.411 54.304 282.411 53.4202V51.1959H282.271C282.138 51.4365 281.947 51.7041 281.696 51.9987C281.451 52.2933 281.112 52.5486 280.68 52.7647C280.248 52.9807 279.686 53.0888 278.993 53.0888C278.1 53.0888 277.294 52.8801 276.577 52.4627C275.865 52.0404 275.301 51.4193 274.883 50.5993C274.471 49.7744 274.265 48.7604 274.265 47.5574C274.265 46.3544 274.468 45.3233 274.876 44.464C275.288 43.6047 275.853 42.9467 276.57 42.4901C277.287 42.0285 278.1 41.7977 279.008 41.7977C279.71 41.7977 280.277 41.9156 280.709 42.1513C281.141 42.382 281.478 42.6521 281.718 42.9614C281.964 43.2708 282.153 43.5433 282.286 43.779H282.448V41.945H284.606V53.5086C284.606 54.4808 284.38 55.2787 283.928 55.9023C283.476 56.5259 282.865 56.9875 282.094 57.287C281.328 57.5865 280.464 57.7363 279.501 57.7363ZM279.479 51.2622C280.113 51.2622 280.648 51.1149 281.085 50.8202C281.527 50.5207 281.861 50.0935 282.087 49.5387C282.317 48.9789 282.433 48.3087 282.433 47.5279C282.433 46.7669 282.32 46.0966 282.094 45.5172C281.868 44.9378 281.537 44.4861 281.1 44.162C280.663 43.833 280.123 43.6685 279.479 43.6685C278.816 43.6685 278.264 43.8404 277.822 44.1841C277.38 44.5229 277.046 44.9845 276.82 45.5688C276.6 46.1531 276.489 46.8061 276.489 47.5279C276.489 48.2694 276.602 48.92 276.828 49.4798C277.054 50.0395 277.388 50.4765 277.83 50.7908C278.276 51.105 278.826 51.2622 279.479 51.2622ZM289.761 38.174V53.2582H287.559V38.174H289.761ZM297.6 53.4865C296.485 53.4865 295.525 53.2483 294.72 52.7721C293.92 52.2909 293.301 51.6157 292.864 50.7466C292.432 49.8726 292.216 48.8488 292.216 47.6753C292.216 46.5164 292.432 45.4951 292.864 44.6113C293.301 43.7274 293.91 43.0376 294.691 42.5416C295.476 42.0457 296.394 41.7977 297.445 41.7977C298.084 41.7977 298.702 41.9033 299.301 42.1144C299.9 42.3256 300.438 42.657 300.914 43.1088C301.391 43.5605 301.766 44.1473 302.041 44.8691C302.316 45.586 302.454 46.4575 302.454 47.4838V48.2645H293.461V46.6146H300.296C300.296 46.0352 300.178 45.5221 299.942 45.0753C299.706 44.6236 299.375 44.2676 298.948 44.0073C298.525 43.7471 298.03 43.617 297.46 43.617C296.841 43.617 296.301 43.7692 295.84 44.0736C295.383 44.3731 295.029 44.7659 294.779 45.2521C294.533 45.7333 294.411 46.2562 294.411 46.8209V48.1098C294.411 48.866 294.543 49.5092 294.808 50.0395C295.078 50.5698 295.454 50.9749 295.935 51.2548C296.417 51.5298 296.979 51.6673 297.622 51.6673C298.039 51.6673 298.42 51.6083 298.764 51.4905C299.107 51.3677 299.404 51.1861 299.655 50.9455C299.905 50.7049 300.097 50.4078 300.229 50.0542L302.314 50.4299C302.147 51.0437 301.847 51.5813 301.415 52.0429C300.988 52.4995 300.45 52.8555 299.802 53.1109C299.159 53.3613 298.425 53.4865 297.6 53.4865Z" fill="#304671"/>
<rect x="17.6423" y="12.4619" width="330.704" height="68.7037" rx="14.3519" stroke="#3671E3" stroke-opacity="0.2" stroke-width="1.2963"/>
</g>
<defs>
<filter id="filter0_d_61_867" x="0.14229" y="0.147055" width="365.704" height="103.704" filterUnits="userSpaceOnUse" color-interpolation-filters="sRGB">
<feFlood flood-opacity="0" result="BackgroundImageFix"/>
<feColorMatrix in="SourceAlpha" type="matrix" values="0 0 0 0 0 0 0 0 0 0 0 0 0 0 0 0 0 0 127 0" result="hardAlpha"/>
<feOffset dy="5.18518"/>
<feGaussianBlur stdDeviation="8.42593"/>
<feColorMatrix type="matrix" values="0 0 0 0 0.211771 0 0 0 0 0.442935 0 0 0 0 0.891667 0 0 0 0.1 0"/>
<feBlend mode="normal" in2="BackgroundImageFix" result="effect1_dropShadow_61_867"/>
<feBlend mode="normal" in="SourceGraphic" in2="effect1_dropShadow_61_867" result="shape"/>
</filter>
</defs>
</svg>
