<svg width="18" height="16" viewBox="0 0 18 16" fill="none" xmlns="http://www.w3.org/2000/svg">
<path d="M16.1465 1.91282C15.7575 1.52364 15.2957 1.21492 14.7873 1.00429C14.279 0.793655 13.7341 0.685242 13.1839 0.685242C12.6336 0.685242 12.0887 0.793655 11.5804 1.00429C11.0721 1.21492 10.6102 1.52364 10.2212 1.91282L9.4139 2.72013L8.60659 1.91282C7.82085 1.12708 6.75515 0.685649 5.64393 0.685649C4.53272 0.685649 3.46702 1.12708 2.68127 1.91282C1.89553 2.69857 1.4541 3.76427 1.4541 4.87548C1.4541 5.98669 1.89553 7.05239 2.68127 7.83814L3.48858 8.64544L9.4139 14.5708L15.3392 8.64544L16.1465 7.83814C16.5357 7.44914 16.8444 6.98728 17.0551 6.47894C17.2657 5.97059 17.3741 5.42573 17.3741 4.87548C17.3741 4.32523 17.2657 3.78037 17.0551 3.27202C16.8444 2.76368 16.5357 2.30182 16.1465 1.91282Z" stroke="black" stroke-linecap="round" stroke-linejoin="round"/>
</svg>
