<svg width="18" height="16" viewBox="0 0 18 16" fill="none" xmlns="http://www.w3.org/2000/svg">
<path d="M15.6924 2.22758C15.3034 1.8384 14.8416 1.52968 14.3332 1.31905C13.8249 1.10841 13.28 1 12.7298 1C12.1795 1 11.6346 1.10841 11.1263 1.31905C10.618 1.52968 10.1561 1.8384 9.7671 2.22758L8.9598 3.03489L8.15249 2.22758C7.36674 1.44183 6.30104 1.00041 5.18983 1.00041C4.07862 1.00041 3.01292 1.44183 2.22717 2.22758C1.44143 3.01333 1 4.07903 1 5.19024C1 6.30145 1.44143 7.36715 2.22717 8.1529L3.03448 8.9602L8.9598 14.8855L14.8851 8.9602L15.6924 8.1529C16.0816 7.7639 16.3903 7.30204 16.601 6.7937C16.8116 6.28535 16.92 5.74049 16.92 5.19024C16.92 4.63999 16.8116 4.09512 16.601 3.58678C16.3903 3.07844 16.0816 2.61658 15.6924 2.22758Z" fill="#FF5151" stroke="#FF5151" stroke-linecap="round" stroke-linejoin="round"/>
</svg>
